<svg width="239" height="53" viewBox="0 0 239 53" fill="none" xmlns="http://www.w3.org/2000/svg">
<rect width="239" height="53" rx="8" fill="#0AB69C"/>
<path d="M26.3184 26.1836H24.3457V24.7871H26.0449C26.6504 24.7871 27.1419 24.6992 27.5195 24.5234C27.8971 24.3411 28.1706 24.0905 28.3398 23.7715C28.5156 23.446 28.6035 23.0684 28.6035 22.6387C28.6035 22.2546 28.5059 21.903 28.3105 21.584C28.1217 21.265 27.8288 21.0111 27.4316 20.8223C27.0345 20.627 26.5234 20.5293 25.8984 20.5293C25.4297 20.5293 25.0033 20.6139 24.6191 20.7832C24.235 20.9525 23.929 21.1901 23.7012 21.4961C23.4798 21.8021 23.3691 22.1634 23.3691 22.5801H20.918C20.918 21.9616 21.0482 21.4082 21.3086 20.9199C21.5755 20.4251 21.9368 20.0052 22.3926 19.6602C22.8548 19.3151 23.3854 19.0514 23.9844 18.8691C24.5898 18.6803 25.2279 18.5859 25.8984 18.5859C26.6797 18.5859 27.3861 18.6738 28.0176 18.8496C28.6491 19.0189 29.1927 19.2728 29.6484 19.6113C30.1042 19.9499 30.4525 20.373 30.6934 20.8809C30.9342 21.3822 31.0547 21.9648 31.0547 22.6289C31.0547 23.1172 30.9408 23.5762 30.7129 24.0059C30.4915 24.4355 30.1725 24.8132 29.7559 25.1387C29.3392 25.4642 28.8379 25.7214 28.252 25.9102C27.6725 26.0924 27.028 26.1836 26.3184 26.1836ZM24.3457 25.334H26.3184C27.1061 25.334 27.806 25.4154 28.418 25.5781C29.0299 25.7409 29.5475 25.9785 29.9707 26.291C30.3939 26.6035 30.7161 26.9909 30.9375 27.4531C31.1589 27.9089 31.2695 28.4329 31.2695 29.0254C31.2695 29.6895 31.1361 30.2819 30.8691 30.8027C30.6087 31.3171 30.2376 31.7533 29.7559 32.1113C29.2741 32.4694 28.7044 32.7396 28.0469 32.9219C27.3958 33.1042 26.6797 33.1953 25.8984 33.1953C25.2669 33.1953 24.6419 33.1172 24.0234 32.9609C23.4115 32.7982 22.8548 32.5508 22.3535 32.2188C21.8587 31.8802 21.4616 31.4505 21.1621 30.9297C20.8626 30.4089 20.7129 29.7839 20.7129 29.0547H23.1738C23.1738 29.4583 23.2878 29.8294 23.5156 30.168C23.75 30.5 24.069 30.7669 24.4727 30.9688C24.8828 31.1641 25.3581 31.2617 25.8984 31.2617C26.5169 31.2617 27.041 31.1641 27.4707 30.9688C27.9069 30.7734 28.2389 30.5065 28.4668 30.168C28.7012 29.8294 28.8184 29.4486 28.8184 29.0254C28.8184 28.6217 28.7565 28.2734 28.6328 27.9805C28.5156 27.681 28.3398 27.4401 28.1055 27.2578C27.8711 27.069 27.5814 26.929 27.2363 26.8379C26.8913 26.7467 26.4941 26.7012 26.0449 26.7012H24.3457V25.334ZM39.3164 30.8809V25.8418C39.3164 25.4642 39.248 25.1387 39.1113 24.8652C38.9746 24.5918 38.7663 24.3802 38.4863 24.2305C38.2129 24.0807 37.8678 24.0059 37.4512 24.0059C37.0671 24.0059 36.735 24.071 36.4551 24.2012C36.1751 24.3314 35.957 24.5072 35.8008 24.7285C35.6445 24.9499 35.5664 25.2005 35.5664 25.4805H33.2227C33.2227 25.0638 33.3236 24.6602 33.5254 24.2695C33.7272 23.8789 34.0202 23.5306 34.4043 23.2246C34.7884 22.9186 35.2474 22.6777 35.7812 22.502C36.3151 22.3262 36.9141 22.2383 37.5781 22.2383C38.3724 22.2383 39.0755 22.3717 39.6875 22.6387C40.306 22.9056 40.791 23.3092 41.1426 23.8496C41.5007 24.3835 41.6797 25.054 41.6797 25.8613V30.5586C41.6797 31.0404 41.7122 31.4733 41.7773 31.8574C41.849 32.235 41.9499 32.5638 42.0801 32.8438V33H39.668C39.5573 32.7461 39.4694 32.4238 39.4043 32.0332C39.3457 31.6361 39.3164 31.252 39.3164 30.8809ZM39.6582 26.5742L39.6777 28.0293H37.9883C37.5521 28.0293 37.168 28.0716 36.8359 28.1562C36.5039 28.2344 36.2272 28.3516 36.0059 28.5078C35.7845 28.6641 35.6185 28.8529 35.5078 29.0742C35.3971 29.2956 35.3418 29.5462 35.3418 29.8262C35.3418 30.1061 35.4069 30.3633 35.5371 30.5977C35.6673 30.8255 35.8561 31.0046 36.1035 31.1348C36.3574 31.265 36.6634 31.3301 37.0215 31.3301C37.5033 31.3301 37.9232 31.2324 38.2812 31.0371C38.6458 30.8353 38.9323 30.5911 39.1406 30.3047C39.349 30.0117 39.4596 29.735 39.4727 29.4746L40.2344 30.5195C40.1562 30.7865 40.0228 31.0729 39.834 31.3789C39.6452 31.6849 39.3978 31.9779 39.0918 32.2578C38.7923 32.5312 38.431 32.7559 38.0078 32.9316C37.5911 33.1074 37.1094 33.1953 36.5625 33.1953C35.8724 33.1953 35.2572 33.0586 34.7168 32.7852C34.1764 32.5052 33.7533 32.1309 33.4473 31.6621C33.1413 31.1868 32.9883 30.6497 32.9883 30.0508C32.9883 29.4909 33.0924 28.9961 33.3008 28.5664C33.5156 28.1302 33.8281 27.7656 34.2383 27.4727C34.6549 27.1797 35.1628 26.9583 35.7617 26.8086C36.3607 26.6523 37.0443 26.5742 37.8125 26.5742H39.6582ZM49.2773 28.4785H45.8984L45.8789 26.8184H48.6523C49.1081 26.8184 49.4824 26.7728 49.7754 26.6816C50.0749 26.5905 50.2962 26.4538 50.4395 26.2715C50.5827 26.0827 50.6543 25.8548 50.6543 25.5879C50.6543 25.3665 50.612 25.1745 50.5273 25.0117C50.4427 24.8424 50.3125 24.7057 50.1367 24.6016C49.9674 24.4909 49.7526 24.4128 49.4922 24.3672C49.2383 24.3151 48.9421 24.2891 48.6035 24.2891H46.6797V33H44.3262V22.4336H48.6035C49.2806 22.4336 49.8893 22.4922 50.4297 22.6094C50.9766 22.7266 51.4421 22.9056 51.8262 23.1465C52.2103 23.3874 52.5033 23.6934 52.7051 24.0645C52.9134 24.429 53.0176 24.8587 53.0176 25.3535C53.0176 25.679 52.946 25.985 52.8027 26.2715C52.666 26.5579 52.4609 26.8118 52.1875 27.0332C51.9141 27.2546 51.5788 27.4368 51.1816 27.5801C50.7845 27.7168 50.3288 27.8014 49.8145 27.834L49.2773 28.4785ZM49.2773 33H45.2148L46.1523 31.1445H49.2773C49.694 31.1445 50.0391 31.0924 50.3125 30.9883C50.5859 30.8841 50.7878 30.7344 50.918 30.5391C51.0547 30.3372 51.123 30.0996 51.123 29.8262C51.123 29.5462 51.0579 29.3053 50.9277 29.1035C50.7975 28.9017 50.5957 28.7487 50.3223 28.6445C50.0553 28.5339 49.707 28.4785 49.2773 28.4785H46.5918L46.6113 26.8184H49.8047L50.4785 27.4629C51.1491 27.5085 51.7057 27.6517 52.1484 27.8926C52.5911 28.1335 52.9232 28.4362 53.1445 28.8008C53.3659 29.1654 53.4766 29.5625 53.4766 29.9922C53.4766 30.487 53.3822 30.9232 53.1934 31.3008C53.0111 31.6784 52.7376 31.9941 52.373 32.248C52.015 32.4954 51.5755 32.6842 51.0547 32.8145C50.5339 32.9382 49.9414 33 49.2773 33ZM60.166 33.1953C59.3848 33.1953 58.6784 33.0684 58.0469 32.8145C57.4219 32.554 56.888 32.1927 56.4453 31.7305C56.0091 31.2682 55.6738 30.7246 55.4395 30.0996C55.2051 29.4746 55.0879 28.8008 55.0879 28.0781V27.6875C55.0879 26.8607 55.2083 26.112 55.4492 25.4414C55.6901 24.7708 56.0254 24.1979 56.4551 23.7227C56.8848 23.2409 57.3926 22.873 57.9785 22.6191C58.5645 22.3652 59.1992 22.2383 59.8828 22.2383C60.638 22.2383 61.2988 22.3652 61.8652 22.6191C62.4316 22.873 62.9004 23.2311 63.2715 23.6934C63.6491 24.1491 63.929 24.6927 64.1113 25.3242C64.3001 25.9557 64.3945 26.6523 64.3945 27.4141V28.4199H56.2305V26.7305H62.0703V26.5449C62.0573 26.1217 61.9727 25.7246 61.8164 25.3535C61.6667 24.9824 61.4355 24.6829 61.123 24.4551C60.8105 24.2272 60.3939 24.1133 59.873 24.1133C59.4824 24.1133 59.1341 24.1979 58.8281 24.3672C58.5286 24.5299 58.278 24.7676 58.0762 25.0801C57.8743 25.3926 57.7181 25.7702 57.6074 26.2129C57.5033 26.6491 57.4512 27.1406 57.4512 27.6875V28.0781C57.4512 28.5404 57.513 28.9701 57.6367 29.3672C57.7669 29.7578 57.9557 30.0996 58.2031 30.3926C58.4505 30.6855 58.75 30.9167 59.1016 31.0859C59.4531 31.2487 59.8535 31.3301 60.3027 31.3301C60.8691 31.3301 61.3737 31.2161 61.8164 30.9883C62.2591 30.7604 62.6432 30.4382 62.9688 30.0215L64.209 31.2227C63.9811 31.5547 63.6849 31.8737 63.3203 32.1797C62.9557 32.4792 62.5098 32.7233 61.9824 32.9121C61.4616 33.1009 60.8561 33.1953 60.166 33.1953ZM68.5938 24.4648V37.0625H66.2402V22.4336H68.4082L68.5938 24.4648ZM75.4785 27.6191V27.8242C75.4785 28.5924 75.3874 29.3053 75.2051 29.9629C75.0293 30.6139 74.7656 31.1836 74.4141 31.6719C74.069 32.1536 73.6426 32.528 73.1348 32.7949C72.627 33.0618 72.041 33.1953 71.377 33.1953C70.7194 33.1953 70.1432 33.0749 69.6484 32.834C69.1602 32.5866 68.7467 32.2383 68.4082 31.7891C68.0697 31.3398 67.7962 30.8125 67.5879 30.207C67.3861 29.5951 67.2428 28.9245 67.1582 28.1953V27.4043C67.2428 26.6296 67.3861 25.9264 67.5879 25.2949C67.7962 24.6634 68.0697 24.1198 68.4082 23.6641C68.7467 23.2083 69.1602 22.8568 69.6484 22.6094C70.1367 22.362 70.7064 22.2383 71.3574 22.2383C72.0215 22.2383 72.6107 22.3685 73.125 22.6289C73.6393 22.8828 74.0723 23.2474 74.4238 23.7227C74.7754 24.1914 75.0391 24.7578 75.2148 25.4219C75.3906 26.0794 75.4785 26.8118 75.4785 27.6191ZM73.125 27.8242V27.6191C73.125 27.1309 73.0794 26.6784 72.9883 26.2617C72.8971 25.8385 72.7539 25.4674 72.5586 25.1484C72.3633 24.8294 72.1126 24.582 71.8066 24.4062C71.5072 24.224 71.1458 24.1328 70.7227 24.1328C70.306 24.1328 69.9479 24.2044 69.6484 24.3477C69.349 24.4844 69.0983 24.6764 68.8965 24.9238C68.6947 25.1712 68.5384 25.4609 68.4277 25.793C68.3171 26.1185 68.2389 26.4733 68.1934 26.8574V28.752C68.2715 29.2207 68.4049 29.6504 68.5938 30.041C68.7826 30.4316 69.0495 30.7441 69.3945 30.9785C69.7461 31.2064 70.1953 31.3203 70.7422 31.3203C71.1654 31.3203 71.5267 31.2292 71.8262 31.0469C72.1257 30.8646 72.3698 30.6139 72.5586 30.2949C72.7539 29.9694 72.8971 29.5951 72.9883 29.1719C73.0794 28.7487 73.125 28.2995 73.125 27.8242ZM77.5586 22.4336H79.9121V31.125H83.2617V22.4336H85.6348V31.125H88.9746V22.4336H91.3281V33H77.5586V22.4336ZM96.2988 29.5625L100.449 22.4336H102.803V33H100.449V25.8613L96.2988 33H93.9453V22.4336H96.2988V29.5625ZM110.195 22.4336V33H107.832V22.4336H110.195ZM113.662 22.4336V24.2891H104.424V22.4336H113.662ZM116.982 25.793H120.098C121.009 25.793 121.784 25.946 122.422 26.252C123.06 26.5579 123.545 26.9844 123.877 27.5312C124.215 28.0716 124.385 28.6901 124.385 29.3867C124.385 29.901 124.29 30.3796 124.102 30.8223C123.913 31.2585 123.633 31.6393 123.262 31.9648C122.897 32.2904 122.448 32.5443 121.914 32.7266C121.387 32.9089 120.781 33 120.098 33H115.42V22.4336H117.783V31.1348H120.098C120.566 31.1348 120.941 31.0534 121.221 30.8906C121.501 30.7279 121.702 30.5163 121.826 30.2559C121.956 29.9954 122.021 29.7188 122.021 29.4258C122.021 29.1263 121.956 28.8431 121.826 28.5762C121.702 28.3092 121.501 28.0911 121.221 27.9219C120.941 27.7526 120.566 27.668 120.098 27.668H116.982V25.793ZM138.34 22.4336V24.3086H133.125V22.4336H138.34ZM133.682 22.4336V33H131.328V22.4336H133.682ZM140.186 22.4336V33H137.822V22.4336H140.186ZM145.039 24.4648V37.0625H142.686V22.4336H144.854L145.039 24.4648ZM151.924 27.6191V27.8242C151.924 28.5924 151.833 29.3053 151.65 29.9629C151.475 30.6139 151.211 31.1836 150.859 31.6719C150.514 32.1536 150.088 32.528 149.58 32.7949C149.072 33.0618 148.486 33.1953 147.822 33.1953C147.165 33.1953 146.589 33.0749 146.094 32.834C145.605 32.5866 145.192 32.2383 144.854 31.7891C144.515 31.3398 144.242 30.8125 144.033 30.207C143.831 29.5951 143.688 28.9245 143.604 28.1953V27.4043C143.688 26.6296 143.831 25.9264 144.033 25.2949C144.242 24.6634 144.515 24.1198 144.854 23.6641C145.192 23.2083 145.605 22.8568 146.094 22.6094C146.582 22.362 147.152 22.2383 147.803 22.2383C148.467 22.2383 149.056 22.3685 149.57 22.6289C150.085 22.8828 150.518 23.2474 150.869 23.7227C151.221 24.1914 151.484 24.7578 151.66 25.4219C151.836 26.0794 151.924 26.8118 151.924 27.6191ZM149.57 27.8242V27.6191C149.57 27.1309 149.525 26.6784 149.434 26.2617C149.342 25.8385 149.199 25.4674 149.004 25.1484C148.809 24.8294 148.558 24.582 148.252 24.4062C147.952 24.224 147.591 24.1328 147.168 24.1328C146.751 24.1328 146.393 24.2044 146.094 24.3477C145.794 24.4844 145.544 24.6764 145.342 24.9238C145.14 25.1712 144.984 25.4609 144.873 25.793C144.762 26.1185 144.684 26.4733 144.639 26.8574V28.752C144.717 29.2207 144.85 29.6504 145.039 30.041C145.228 30.4316 145.495 30.7441 145.84 30.9785C146.191 31.2064 146.641 31.3203 147.188 31.3203C147.611 31.3203 147.972 31.2292 148.271 31.0469C148.571 30.8646 148.815 30.6139 149.004 30.2949C149.199 29.9694 149.342 29.5951 149.434 29.1719C149.525 28.7487 149.57 28.2995 149.57 27.8242ZM153.477 27.834V27.6094C153.477 26.8477 153.587 26.1413 153.809 25.4902C154.03 24.8327 154.349 24.263 154.766 23.7812C155.189 23.293 155.703 22.9154 156.309 22.6484C156.921 22.375 157.611 22.2383 158.379 22.2383C159.154 22.2383 159.844 22.375 160.449 22.6484C161.061 22.9154 161.579 23.293 162.002 23.7812C162.425 24.263 162.747 24.8327 162.969 25.4902C163.19 26.1413 163.301 26.8477 163.301 27.6094V27.834C163.301 28.5957 163.19 29.3021 162.969 29.9531C162.747 30.6042 162.425 31.1738 162.002 31.6621C161.579 32.1439 161.064 32.5215 160.459 32.7949C159.854 33.0618 159.167 33.1953 158.398 33.1953C157.624 33.1953 156.93 33.0618 156.318 32.7949C155.713 32.5215 155.199 32.1439 154.775 31.6621C154.352 31.1738 154.03 30.6042 153.809 29.9531C153.587 29.3021 153.477 28.5957 153.477 27.834ZM155.83 27.6094V27.834C155.83 28.3092 155.879 28.7585 155.977 29.1816C156.074 29.6048 156.227 29.9759 156.436 30.2949C156.644 30.6139 156.911 30.8646 157.236 31.0469C157.562 31.2292 157.949 31.3203 158.398 31.3203C158.835 31.3203 159.212 31.2292 159.531 31.0469C159.857 30.8646 160.124 30.6139 160.332 30.2949C160.54 29.9759 160.693 29.6048 160.791 29.1816C160.895 28.7585 160.947 28.3092 160.947 27.834V27.6094C160.947 27.1406 160.895 26.6979 160.791 26.2812C160.693 25.8581 160.537 25.4837 160.322 25.1582C160.114 24.8327 159.847 24.5788 159.521 24.3965C159.202 24.2077 158.822 24.1133 158.379 24.1133C157.936 24.1133 157.552 24.2077 157.227 24.3965C156.908 24.5788 156.644 24.8327 156.436 25.1582C156.227 25.4837 156.074 25.8581 155.977 26.2812C155.879 26.6979 155.83 27.1406 155.83 27.6094ZM170.41 28.4785H167.031L167.012 26.8184H169.785C170.241 26.8184 170.615 26.7728 170.908 26.6816C171.208 26.5905 171.429 26.4538 171.572 26.2715C171.715 26.0827 171.787 25.8548 171.787 25.5879C171.787 25.3665 171.745 25.1745 171.66 25.0117C171.576 24.8424 171.445 24.7057 171.27 24.6016C171.1 24.4909 170.885 24.4128 170.625 24.3672C170.371 24.3151 170.075 24.2891 169.736 24.2891H167.812V33H165.459V22.4336H169.736C170.413 22.4336 171.022 22.4922 171.562 22.6094C172.109 22.7266 172.575 22.9056 172.959 23.1465C173.343 23.3874 173.636 23.6934 173.838 24.0645C174.046 24.429 174.15 24.8587 174.15 25.3535C174.15 25.679 174.079 25.985 173.936 26.2715C173.799 26.5579 173.594 26.8118 173.32 27.0332C173.047 27.2546 172.712 27.4368 172.314 27.5801C171.917 27.7168 171.462 27.8014 170.947 27.834L170.41 28.4785ZM170.41 33H166.348L167.285 31.1445H170.41C170.827 31.1445 171.172 31.0924 171.445 30.9883C171.719 30.8841 171.921 30.7344 172.051 30.5391C172.188 30.3372 172.256 30.0996 172.256 29.8262C172.256 29.5462 172.191 29.3053 172.061 29.1035C171.93 28.9017 171.729 28.7487 171.455 28.6445C171.188 28.5339 170.84 28.4785 170.41 28.4785H167.725L167.744 26.8184H170.938L171.611 27.4629C172.282 27.5085 172.839 27.6517 173.281 27.8926C173.724 28.1335 174.056 28.4362 174.277 28.8008C174.499 29.1654 174.609 29.5625 174.609 29.9922C174.609 30.487 174.515 30.9232 174.326 31.3008C174.144 31.6784 173.87 31.9941 173.506 32.248C173.148 32.4954 172.708 32.6842 172.188 32.8145C171.667 32.9382 171.074 33 170.41 33ZM181.299 33.1953C180.518 33.1953 179.811 33.0684 179.18 32.8145C178.555 32.554 178.021 32.1927 177.578 31.7305C177.142 31.2682 176.807 30.7246 176.572 30.0996C176.338 29.4746 176.221 28.8008 176.221 28.0781V27.6875C176.221 26.8607 176.341 26.112 176.582 25.4414C176.823 24.7708 177.158 24.1979 177.588 23.7227C178.018 23.2409 178.525 22.873 179.111 22.6191C179.697 22.3652 180.332 22.2383 181.016 22.2383C181.771 22.2383 182.432 22.3652 182.998 22.6191C183.564 22.873 184.033 23.2311 184.404 23.6934C184.782 24.1491 185.062 24.6927 185.244 25.3242C185.433 25.9557 185.527 26.6523 185.527 27.4141V28.4199H177.363V26.7305H183.203V26.5449C183.19 26.1217 183.105 25.7246 182.949 25.3535C182.799 24.9824 182.568 24.6829 182.256 24.4551C181.943 24.2272 181.527 24.1133 181.006 24.1133C180.615 24.1133 180.267 24.1979 179.961 24.3672C179.661 24.5299 179.411 24.7676 179.209 25.0801C179.007 25.3926 178.851 25.7702 178.74 26.2129C178.636 26.6491 178.584 27.1406 178.584 27.6875V28.0781C178.584 28.5404 178.646 28.9701 178.77 29.3672C178.9 29.7578 179.089 30.0996 179.336 30.3926C179.583 30.6855 179.883 30.9167 180.234 31.0859C180.586 31.2487 180.986 31.3301 181.436 31.3301C182.002 31.3301 182.507 31.2161 182.949 30.9883C183.392 30.7604 183.776 30.4382 184.102 30.0215L185.342 31.2227C185.114 31.5547 184.818 31.8737 184.453 32.1797C184.089 32.4792 183.643 32.7233 183.115 32.9121C182.594 33.1009 181.989 33.1953 181.299 33.1953ZM189.727 24.4648V37.0625H187.373V22.4336H189.541L189.727 24.4648ZM196.611 27.6191V27.8242C196.611 28.5924 196.52 29.3053 196.338 29.9629C196.162 30.6139 195.898 31.1836 195.547 31.6719C195.202 32.1536 194.775 32.528 194.268 32.7949C193.76 33.0618 193.174 33.1953 192.51 33.1953C191.852 33.1953 191.276 33.0749 190.781 32.834C190.293 32.5866 189.88 32.2383 189.541 31.7891C189.202 31.3398 188.929 30.8125 188.721 30.207C188.519 29.5951 188.376 28.9245 188.291 28.1953V27.4043C188.376 26.6296 188.519 25.9264 188.721 25.2949C188.929 24.6634 189.202 24.1198 189.541 23.6641C189.88 23.2083 190.293 22.8568 190.781 22.6094C191.27 22.362 191.839 22.2383 192.49 22.2383C193.154 22.2383 193.743 22.3685 194.258 22.6289C194.772 22.8828 195.205 23.2474 195.557 23.7227C195.908 24.1914 196.172 24.7578 196.348 25.4219C196.523 26.0794 196.611 26.8118 196.611 27.6191ZM194.258 27.8242V27.6191C194.258 27.1309 194.212 26.6784 194.121 26.2617C194.03 25.8385 193.887 25.4674 193.691 25.1484C193.496 24.8294 193.245 24.582 192.939 24.4062C192.64 24.224 192.279 24.1328 191.855 24.1328C191.439 24.1328 191.081 24.2044 190.781 24.3477C190.482 24.4844 190.231 24.6764 190.029 24.9238C189.827 25.1712 189.671 25.4609 189.561 25.793C189.45 26.1185 189.372 26.4733 189.326 26.8574V28.752C189.404 29.2207 189.538 29.6504 189.727 30.041C189.915 30.4316 190.182 30.7441 190.527 30.9785C190.879 31.2064 191.328 31.3203 191.875 31.3203C192.298 31.3203 192.66 31.2292 192.959 31.0469C193.258 30.8646 193.503 30.6139 193.691 30.2949C193.887 29.9694 194.03 29.5951 194.121 29.1719C194.212 28.7487 194.258 28.2995 194.258 27.8242ZM201.152 22.4336V33H198.799V22.4336H201.152ZM208.047 22.4336L203.291 28.791H200.605L200.293 26.6621H202.256L205.107 22.4336H208.047ZM205.293 33L202.109 28.3906L203.965 27.0527L208.389 33H205.293ZM212.734 31.8477L215.605 22.4336H218.125L213.887 34.6113C213.789 34.8717 213.662 35.1549 213.506 35.4609C213.35 35.7669 213.145 36.0566 212.891 36.3301C212.643 36.61 212.334 36.8346 211.963 37.0039C211.592 37.1797 211.143 37.2676 210.615 37.2676C210.407 37.2676 210.205 37.248 210.01 37.209C209.821 37.1764 209.642 37.1406 209.473 37.1016L209.463 35.3047C209.528 35.3112 209.606 35.3177 209.697 35.3242C209.795 35.3307 209.873 35.334 209.932 35.334C210.322 35.334 210.648 35.2852 210.908 35.1875C211.169 35.0964 211.38 34.9466 211.543 34.7383C211.712 34.5299 211.855 34.25 211.973 33.8984L212.734 31.8477ZM211.113 22.4336L213.623 30.3438L214.043 32.8242L212.412 33.2441L208.574 22.4336H211.113Z" fill="white"/>
</svg>
