<svg width="348" height="230" viewBox="0 0 348 230" fill="none" xmlns="http://www.w3.org/2000/svg">
<g clip-path="url(#clip0_390_1344)">
<path d="M18 0H339.724C339.865 0.221093 339.951 0.430473 339.971 0.694782C340.263 4.3079 340 8.5284 340 12.1947L340.002 35.5662V180.501V216.254L340 225.622C340 226.779 340.177 228.324 339.957 229.447C339.915 229.654 339.836 229.823 339.724 230H18V0ZM167.002 17.3151C144.333 17.664 121.632 17.3966 98.9599 17.4174L80.4134 17.4117C77.4559 17.4034 74.1627 17.1096 71.2402 17.4663C70.1281 17.6021 69.1686 18.1566 68.3883 18.947C67.4881 19.859 67.2918 20.7074 67.1546 21.9489C66.929 23.9928 67.0666 26.1724 67.0657 28.2327L67.0684 39.9713L67.0679 77.2092C65.7999 78.1279 64.7107 79.4735 63.6991 80.6601C59.2052 85.9315 55.8047 91.6301 52.8568 97.8684C52.2506 99.1516 51.3048 100.741 51.0957 102.143C51.0575 102.399 51.0791 102.646 51.1085 102.9C50.7989 103.174 50.5215 103.317 50.4517 103.752C50.4326 103.871 50.4769 104.068 50.4937 104.181C50.498 104.241 50.504 104.301 50.5067 104.361C50.5319 104.928 50.1005 105.848 49.9166 106.408C48.6729 110.195 47.575 114.042 46.9185 117.981C43.5404 138.248 48.4247 159.49 63.2596 174.232C64.4879 175.452 65.7135 176.779 67.0599 177.866L67.0661 200.032C67.0736 202.928 66.7235 206.361 67.1513 209.185C67.3008 210.171 67.7018 211.09 68.4123 211.803C69.0199 212.413 69.8806 212.927 70.7514 212.979C73.4633 213.141 76.2501 213.014 78.9705 213.014L94.7907 213.007L142.82 213.004L217.271 212.853C237.608 212.858 257.969 213.058 278.301 212.825C279.336 212.813 280.443 212.513 281.196 211.758C281.78 211.174 282.238 210.368 282.384 209.553C282.77 207.401 282.485 203.1 282.48 200.719C282.476 195.663 282.664 190.519 282.453 185.472C282.44 185.168 282.393 184.84 282.269 184.56C282.698 183.726 288.909 178.048 290.191 176.756C301.117 165.748 310.032 154.554 315.363 139.767C319.092 129.328 320.992 118.324 320.983 107.238C320.952 103.721 320.693 100.144 320.278 96.6505C320.074 94.9392 319.73 93.2293 319.584 91.5137C319.555 91.1631 319.589 90.9446 319.723 90.6236C320.707 91.0173 322.389 92.8892 323.157 92.9211C323.166 92.6808 323.159 92.6305 323.062 92.4189C322.6 91.4079 321.446 90.319 320.381 89.9675C319.943 89.8224 319.878 89.9132 319.488 90.1173C318.946 89.97 318.313 86.0265 318.163 85.29C316.229 75.9876 312.72 67.0843 307.791 58.9642C302.328 49.7968 295.594 42.1264 287.559 35.148C286.201 33.9666 284.166 31.893 282.406 31.4491C282.482 31.2218 282.509 31.0341 282.521 30.7944C282.586 29.2053 282.503 27.6117 282.512 26.0219C282.525 23.6069 283.055 20.7375 281.234 18.8141C280.569 18.1122 279.741 17.6195 278.793 17.4182C276.983 17.0336 274.704 17.3012 272.845 17.308C268.392 17.3243 263.919 17.4312 259.469 17.3022L259.43 17.114C258.584 16.3933 257.183 15.9219 256.154 15.4455C249.121 12.1607 241.727 9.7182 234.123 8.16864C215.499 4.27798 196.158 5.68156 178.289 12.2205C174.526 13.5925 170.338 15.1059 167.002 17.3151ZM325.095 94.6264C325.036 95.386 325.301 95.5897 325.788 96.1577C326.208 96.6483 327.118 97.9306 327.724 98.0901L328.011 97.6819C327.728 96.744 326.478 95.2618 325.62 94.7431C325.456 94.6439 325.281 94.6212 325.095 94.6264ZM329.177 100.29C329.148 101.284 330.371 103.046 330.879 103.913L331.142 104.064L331.245 104.027L331.541 103.711C331.503 102.71 330.636 101.176 329.929 100.488C329.657 100.223 329.523 100.283 329.177 100.29ZM47.9348 104.736C47.2777 105.129 45.5422 105.95 45.337 106.702C45.2759 106.927 45.4544 107.152 45.5663 107.349C45.5746 107.363 45.5849 107.377 45.5941 107.39C46.4018 106.897 47.9716 106.188 48.2698 105.27C48.1656 105.084 48.0744 104.898 47.9348 104.736ZM332.064 106.582C332.143 107.658 332.635 109.312 333.187 110.24C333.277 110.267 333.385 110.331 333.47 110.292C333.594 110.164 333.814 110.018 333.811 109.838C333.8 108.926 333.479 107.452 332.862 106.753C332.628 106.488 332.386 106.575 332.064 106.582ZM42.7071 108.339C42.1188 108.803 40.4057 109.909 40.2754 110.636C40.2658 110.689 40.2638 110.743 40.2579 110.797C40.4623 111.027 40.4872 111.043 40.7843 111.12C41.4923 110.553 43.116 109.542 43.231 108.632C43.0473 108.458 42.9615 108.374 42.7071 108.339ZM37.6737 112.558C36.9436 113.277 35.616 114.274 35.5433 115.328C35.723 115.511 35.8049 115.609 36.0482 115.705C36.6594 115.013 38.2053 113.797 38.2068 112.868C38.0134 112.716 37.9114 112.637 37.6737 112.558ZM333.468 113.032C333.69 114.189 333.641 115.497 334 116.603L334.238 116.74L334.393 116.653C334.878 116.046 334.811 115.21 334.721 114.438C334.663 113.939 334.485 113.253 334.099 112.937L333.468 113.032ZM33.4885 117.285C32.7417 118.089 31.275 119.458 31.2929 120.62C31.4481 120.797 31.5484 120.923 31.745 121.054C32.4236 120.177 33.7575 118.802 33.9118 117.712C33.7708 117.535 33.6776 117.413 33.4885 117.285ZM334.097 119.64C333.78 120.701 333.699 122.083 333.767 123.186L333.944 123.452L334.247 123.465C334.784 122.948 334.826 121.784 334.842 121.035C334.849 120.59 334.874 120.07 334.575 119.717L334.097 119.64ZM29.5433 122.791C28.9635 123.729 27.8297 125.142 27.8799 126.275C28.0435 126.465 28.1407 126.583 28.3501 126.726C28.8292 125.997 30.2108 124.17 30.0592 123.3C30.0155 123.05 29.7409 122.936 29.5433 122.791ZM333.183 126.405C333.183 126.478 333.18 126.552 333.178 126.626C333.147 127.583 332.334 129.333 332.837 130.147C332.924 130.128 333.073 130.114 333.149 130.068C333.688 129.56 334.054 128.055 334.076 127.285C334.085 126.954 334.07 126.757 333.906 126.471C333.632 126.375 333.47 126.372 333.183 126.405ZM26.4095 128.863C25.9297 129.912 25.2251 131.119 25.2827 132.294C25.517 132.655 25.5919 132.633 25.9871 132.759C26.3239 131.832 27.295 129.947 26.9459 129.06L26.4095 128.863ZM331.575 133.012C331.521 133.982 330.261 135.64 330.834 136.439L331.085 136.475C331.674 136.094 332.177 134.783 332.332 134.094C332.413 133.741 332.415 133.45 332.334 133.099C332.051 132.928 331.898 132.988 331.575 133.012ZM24.4492 135.021C24.0224 135.892 23.3824 137.652 23.7168 138.605C23.8063 138.86 24.0019 138.912 24.2366 139.025C24.2578 139.035 24.28 139.043 24.3017 139.052C24.5352 138.228 25.3233 136.21 24.9998 135.395C24.9237 135.203 24.6258 135.112 24.4492 135.021ZM329.244 139.305C329.237 139.335 329.231 139.365 329.222 139.394C328.964 140.293 327.713 141.808 328.054 142.674L328.337 142.767C329.017 142.336 329.767 140.828 329.94 140.036C329.99 139.813 329.994 139.66 329.96 139.436C329.678 139.247 329.579 139.291 329.244 139.305ZM23.226 141.291C23.066 142.218 22.611 144.334 23.1368 145.152C23.2633 145.349 23.4698 145.371 23.6907 145.406C23.7366 145.414 23.7832 145.416 23.8295 145.421C23.9357 144.432 24.3553 142.271 23.7931 141.432C23.6073 141.383 23.4159 141.319 23.226 141.291ZM326.089 145.44C325.973 146.512 324.706 147.428 324.789 148.488L325.074 148.742L325.232 148.588C325.831 148.115 326.826 146.709 326.947 145.946C326.97 145.803 326.952 145.697 326.925 145.557C326.635 145.318 326.455 145.412 326.089 145.44ZM23.1564 147.775C22.9875 148.673 23.0458 150.84 23.6248 151.598C23.7731 151.792 23.8818 151.768 24.1075 151.826C24.4393 150.972 24.2974 149.209 23.9667 148.358C23.9046 148.199 23.8194 148.091 23.7133 147.959L23.1564 147.775ZM322.494 151.419C322.283 152.367 320.864 153.39 321.102 154.322C321.264 154.366 321.333 154.422 321.493 154.36C322.261 153.955 323.105 152.64 323.366 151.825L323.318 151.464C322.966 151.324 322.86 151.362 322.494 151.419ZM24.2748 154.08C24.0802 155.064 24.4124 156.603 24.9377 157.464C25.0216 157.601 25.1167 157.687 25.2359 157.793L25.8107 157.882C25.806 157.089 25.3782 154.812 24.7339 154.303C24.5866 154.186 24.4517 154.131 24.2748 154.08ZM318.711 156.768C318.385 157.651 316.564 159.019 316.923 159.889L317.235 160.016C317.972 159.657 319.198 158.21 319.447 157.42C319.492 157.282 319.488 157.174 319.483 157.031C319.176 156.752 319.11 156.791 318.711 156.768ZM26.1109 160.227C25.9912 161.229 26.7179 162.715 27.3051 163.514C27.4977 163.776 27.7663 163.848 28.0636 163.924C28.1838 162.954 27.4727 161.316 26.8612 160.557C26.6531 160.299 26.4334 160.251 26.1109 160.227ZM314.285 162.274C313.858 163.133 312.259 164.114 312.444 165.062L312.697 165.299C313.393 165.009 314.662 163.696 314.907 162.969C314.956 162.819 314.954 162.703 314.947 162.546C314.694 162.339 314.613 162.331 314.285 162.274ZM29.0942 165.883C28.9217 166.741 29.3812 167.559 29.8549 168.254C30.238 168.817 30.5673 169.278 31.2403 169.481C31.3857 168.466 30.4725 167.271 29.8804 166.466C29.6297 166.125 29.4974 166.021 29.0942 165.883ZM309.437 167.308C309.417 167.334 309.394 167.361 309.374 167.387C308.783 168.111 307.888 168.68 307.474 169.518L307.537 169.876C307.65 169.931 307.706 169.999 307.829 169.961C308.718 169.536 309.659 168.641 310.185 167.807L310.221 167.442C309.891 167.24 309.812 167.281 309.437 167.308ZM32.7202 171.282C32.575 171.598 32.4717 171.694 32.6017 172.052C32.9066 172.891 34.0493 174.283 34.87 174.607C34.9276 174.63 34.986 174.65 35.0439 174.672C35.1669 174.283 35.2293 174.21 35.0386 173.826C34.6454 173.035 33.5416 171.596 32.7202 171.282ZM304.703 171.87C304.218 172.593 302.294 173.643 302.409 174.463L302.694 174.69C303.417 174.32 305.236 173.105 305.458 172.309C305.469 172.263 305.469 172.214 305.476 172.167C305.229 171.866 305.081 171.919 304.703 171.87ZM36.9238 176.273C36.8224 176.641 36.7391 176.726 36.9499 177.086C37.44 177.923 38.604 179.184 39.5321 179.456C39.6217 179.127 39.7253 178.967 39.5565 178.638C39.2249 177.991 37.8125 176.484 37.1197 176.313C37.055 176.297 36.9891 176.286 36.9238 176.273ZM299.411 176.432C299.386 176.458 299.362 176.484 299.339 176.509C298.598 177.282 297.5 177.779 296.885 178.647C296.945 178.826 296.959 178.911 297.103 179.041C298.01 178.904 299.323 177.91 299.887 177.18C299.977 177.065 300.017 176.955 300.067 176.82L299.934 176.523L299.411 176.432ZM41.3302 180.568C41.3169 181.139 41.3901 181.278 41.8078 181.712C42.4345 182.364 43.5128 183.338 44.4529 183.355C44.3508 182.479 43.74 181.987 43.0659 181.459C42.547 181.052 42.0072 180.627 41.3302 180.568ZM293.465 180.837C292.762 181.623 290.097 182.735 290.079 183.733L290.344 184.029C290.494 184.01 290.544 184.032 290.656 183.927C291.545 183.582 293.993 182.104 294.374 181.262C294.397 181.212 294.415 181.159 294.435 181.108C294.334 180.925 294.354 180.847 294.134 180.797C293.874 180.738 293.719 180.783 293.465 180.837ZM46.3753 184.487C46.4079 185.016 46.4397 185.199 46.8578 185.575C47.5245 186.174 48.5693 186.968 49.4889 187C49.4965 186.578 49.5374 186.503 49.2342 186.182C48.6688 185.584 47.3072 184.499 46.4727 184.483C46.4402 184.483 46.4076 184.485 46.3753 184.487ZM286.778 185.399C286.729 185.446 286.679 185.492 286.627 185.538C285.873 186.224 284.335 186.758 284.005 187.742C284.173 188 284.16 187.998 284.456 188.075C285.204 187.8 287.303 186.528 287.595 185.789C287.613 185.745 287.618 185.697 287.627 185.651L287.474 185.414C287.229 185.383 287.025 185.366 286.778 185.399ZM51.781 187.808C51.6986 188.043 51.5372 188.283 51.6553 188.514C52.042 189.273 53.8594 190.09 54.6613 190.322C54.6986 190.022 54.7996 189.811 54.6153 189.553C54.0719 188.795 52.6323 188.107 51.781 187.808ZM56.9874 190.755C56.9928 191.156 56.9173 191.356 57.2306 191.657C57.9352 192.332 59.5005 192.784 60.4476 192.95C60.4196 192.534 60.4753 192.257 60.1092 191.981C59.388 191.438 57.8896 190.82 56.9874 190.755ZM62.8377 193.11C62.818 193.448 62.7192 193.717 62.9684 193.985C63.6315 194.696 65.21 194.939 66.1392 194.943C66.1046 194.647 66.1534 194.449 65.9151 194.245C65.248 193.674 63.6921 193.192 62.8377 193.11Z" fill="#FEFEFE"/>
<path d="M167.002 17.3152C170.338 15.106 174.526 13.5925 178.289 12.2206C196.158 5.68162 215.499 4.27803 234.123 8.1687C241.727 9.71825 249.121 12.1608 256.154 15.4455C257.183 15.922 258.584 16.3934 259.43 17.114L259.468 17.3023C256.565 17.6297 253.17 17.3581 250.215 17.3573L230.784 17.3601L167.002 17.3152Z" fill="#F8F7FE"/>
<path d="M67.0677 77.2093L67.0681 39.9713L67.0654 28.2328C67.0663 26.1725 66.9287 23.9928 67.1543 21.949C67.2915 20.7075 67.4878 19.8591 68.388 18.947C69.1683 18.1567 70.1278 17.6022 71.24 17.4664C74.1624 17.1096 77.4557 17.4035 80.4132 17.4118L98.9596 17.4174C121.632 17.3966 144.332 17.664 167.002 17.3152L230.783 17.3601L250.215 17.3573C253.17 17.3581 256.565 17.6297 259.468 17.3023C263.919 17.4312 268.392 17.3243 272.845 17.3081C274.704 17.3013 276.983 17.0337 278.793 17.4182C279.74 17.6196 280.569 18.1123 281.234 18.8141C283.055 20.7376 282.525 23.607 282.511 26.022C282.502 27.6117 282.585 29.2054 282.52 30.7945C282.509 31.0341 282.482 31.2219 282.406 31.4492C282.801 32.5608 282.493 55.7016 282.491 58.6067L282.455 156.387C282.453 159.552 282.48 185.5 282.48 185.5C282.691 190.547 282.475 195.663 282.48 200.719C282.484 203.1 282.769 207.401 282.383 209.553C282.237 210.368 281.779 211.174 281.195 211.758C280.443 212.513 279.336 212.813 278.301 212.825C257.968 213.058 237.608 212.858 217.271 212.853L142.82 213.004L94.7904 213.007L78.9702 213.014C76.2498 213.014 73.463 213.141 70.7511 212.979C69.8803 212.927 69.0197 212.413 68.412 211.803C67.7016 211.09 67.3005 210.171 67.151 209.185C66.7232 206.361 67.0733 202.928 67.0659 200.032L67.0596 177.866L67.0677 77.2093ZM236.867 105.066C237.893 106.479 238.644 107.942 239.164 109.614C240.672 114.456 240.642 121.361 238.245 125.89C237.652 127.01 236.673 128.544 235.36 128.89C234.953 128.997 234.577 128.959 234.222 128.722C232.486 127.562 231.642 119.621 231.064 117.343C230.024 113.245 228.327 108.217 224.483 105.971C223.65 105.485 222.782 105.297 221.825 105.257C219.181 105.144 211.037 106.381 208.389 107.074C211.724 109.969 213.056 113.627 213.363 117.957C213.625 121.66 212.938 128.318 210.465 131.139C210.047 131.616 209.37 132.14 208.716 132.181C208.264 132.21 207.885 132.018 207.568 131.706C206.365 130.517 206.235 128.035 205.955 126.434C204.929 120.553 203.613 112.032 196.78 110.401C192.792 110.967 185.855 115.27 182.756 117.957C179.295 120.958 176.339 124.696 176.028 129.458C175.841 132.323 176.804 135.45 178.727 137.605C180.63 139.738 182.977 140.606 185.772 140.759C190.673 141.028 195.693 140.779 200.609 140.771L229.748 140.752L249.229 140.766C252.377 140.767 255.858 141.061 258.961 140.65C260.883 140.395 262.509 139.621 263.946 138.311C266.31 136.156 267.424 132.983 267.554 129.841C267.779 124.349 265.479 119.224 261.797 115.255C255.314 108.27 246.18 105.431 236.867 105.066ZM207.125 107.716C206.006 107.146 201.028 108.75 199.629 109.201L199.628 109.202C199.302 109.307 198.858 109.41 198.681 109.724C198.676 109.732 198.675 109.742 198.672 109.751C204.612 112.248 206.086 120.09 207.033 125.793C207.246 127.075 207.323 129.17 207.993 130.285C208.223 130.666 208.337 130.715 208.76 130.806C209.295 130.639 209.577 130.371 209.898 129.914C212.29 126.51 212.669 119.671 211.943 115.683C211.335 112.339 209.936 109.666 207.125 107.716ZM173.148 143.343L173.111 59.1404L173.111 34.8249C173.111 30.5786 173.328 26.1556 173.005 21.9297C172.932 20.9631 172.76 20.1996 172.06 19.4865C170.705 18.1064 168.425 18.3911 166.666 18.4268C168.446 20.1819 168.455 21.5872 168.471 23.9627L168.348 145.877L168.323 188.308L168.314 201.841C168.312 204.165 168.439 206.569 168.262 208.883C168.167 210.127 167.545 210.967 166.764 211.881C168.402 211.931 170.837 212.323 172.171 211.148C173.145 210.289 173.11 208.926 173.14 207.726C173.308 200.902 173.15 194.039 173.151 187.211L173.17 150.554L173.148 143.343ZM71.3635 18.4267C70.2776 18.8311 69.6012 19.1752 68.8887 20.1206C68.8494 20.173 68.8063 20.2227 68.7679 20.276C68.4475 20.7203 68.4091 21.2049 68.3707 21.7353C68.0575 26.0655 68.2881 30.555 68.2885 34.9044L68.2923 59.6756L68.2479 171.433L68.2351 197.815C68.2358 200.914 67.8817 206.658 68.4392 209.433C68.6218 210.341 68.805 210.889 69.6104 211.419C70.1736 211.789 70.7296 211.998 71.4057 212.038C75.2953 212.271 79.3001 212.079 83.2 212.077L105.884 212.084L143.586 212.08C150.336 212.075 157.101 212.156 163.849 212.035C164.988 211.745 166.07 211.24 166.702 210.186C167.047 209.612 167.098 208.885 167.143 208.231C167.365 204.991 167.183 201.613 167.18 198.36L167.171 179.206L167.244 58.9892L167.266 32.466C167.265 30.213 167.587 22.4758 167.056 20.9116C166.722 19.926 165.812 19.0871 164.88 18.684C164.086 18.3405 163.127 18.3978 162.273 18.3862C155.95 18.3001 149.616 18.388 143.291 18.3857L103.198 18.3872L81.9892 18.387C78.5023 18.3862 74.8327 18.1545 71.3635 18.4267ZM172.703 18.4414C173.781 19.5844 174.086 20.629 174.34 22.1551L277.302 22.152C277.522 22.5284 277.547 22.8491 277.556 23.2757C277.675 28.6914 277.562 34.1348 277.56 39.5529L277.553 72.0568L277.576 175.44L277.573 201.76C277.573 203.897 277.856 209.853 277.466 211.409C277.432 211.535 277.403 211.595 277.353 211.722C278.198 211.685 279.448 211.731 280.106 211.104C280.207 211.008 280.297 210.859 280.34 210.729C280.924 210.27 281.171 209.782 281.265 209.045C281.519 207.052 281.344 204.841 281.339 202.825L281.319 190.778L281.341 150.596L281.328 70.0739C281.341 54.1716 281.579 38.2297 281.332 22.3305C281.317 21.3165 281.144 20.5526 280.475 19.7555C279.915 19.0903 279.174 18.5909 278.292 18.5183C274.423 18.1998 270.339 18.4531 266.443 18.4548L243.382 18.4773L172.703 18.4414ZM174.405 89.1399L174.403 92.094C182.095 92.0809 275.458 92.248 275.907 91.954C276.264 91.3164 276.296 90.2836 276.089 89.5909C276.044 89.4406 275.972 89.3205 275.892 89.1873L174.405 89.1399ZM224.734 104.79C229.93 108.2 231.62 113.89 232.822 119.677C233.112 121.076 233.756 126.797 234.862 127.475C235.098 127.619 235.243 127.555 235.505 127.53C236.23 127.109 236.667 126.345 237.054 125.624C239.332 120.595 239.651 114.114 237.672 108.914C237.08 107.36 236.255 106.056 235.036 104.927C231.604 104.805 228.168 104.631 224.734 104.79ZM174.418 142.035L174.418 152.123L249.86 152.111L268.742 152.121C270.561 152.121 274.41 152.4 276.044 152.034C276.487 151.292 276.514 143.616 276.287 142.536C276.244 142.337 276.177 142.216 276.078 142.041L174.418 142.035Z" fill="#080717"/>
<path d="M174.405 89.1399L174.403 92.094C182.095 92.0809 275.458 92.248 275.907 91.954C276.264 91.3164 276.296 90.2836 276.089 89.5909C276.044 89.4406 275.972 89.3205 275.892 89.1873L174.405 89.1399Z" fill="#080717"/>
<path d="M207.125 107.716C206.006 107.146 201.028 108.75 199.629 109.201L199.628 109.202C199.302 109.307 198.858 109.41 198.681 109.724C198.676 109.732 198.675 109.742 198.672 109.751C204.612 112.248 206.086 120.09 207.033 125.793C207.246 127.075 207.323 129.17 207.993 130.285C208.223 130.666 208.337 130.715 208.76 130.806C209.295 130.639 209.577 130.371 209.898 129.914C212.29 126.51 212.669 119.671 211.943 115.683C211.335 112.339 209.936 109.666 207.125 107.716Z" fill="#080717"/>
<path d="M224.734 104.79C229.93 108.2 231.62 113.89 232.822 119.677C233.112 121.076 233.756 126.797 234.862 127.475C235.098 127.619 235.243 127.555 235.505 127.53C236.23 127.109 236.667 126.345 237.054 125.624C239.332 120.595 239.651 114.114 237.672 108.914C237.08 107.36 236.255 106.056 235.036 104.927C231.604 104.805 228.168 104.631 224.734 104.79Z" fill="#080717"/>
<path d="M236.867 105.066C237.893 106.479 238.644 107.942 239.164 109.614C240.672 114.456 240.642 121.361 238.245 125.89C237.652 127.01 236.673 128.544 235.36 128.89C234.953 128.997 234.577 128.959 234.222 128.722C232.486 127.562 231.642 119.621 231.064 117.343C230.024 113.245 228.327 108.217 224.483 105.971C223.65 105.485 222.782 105.297 221.825 105.257C219.181 105.144 211.037 106.381 208.389 107.074C211.724 109.969 213.056 113.627 213.363 117.957C213.625 121.66 212.938 128.318 210.465 131.139C210.047 131.616 209.37 132.14 208.716 132.181C208.264 132.21 207.885 132.018 207.568 131.706C206.365 130.517 206.235 128.035 205.955 126.434C204.929 120.553 203.613 112.032 196.78 110.401C192.792 110.967 185.855 115.27 182.756 117.957C179.295 120.958 176.339 124.696 176.028 129.458C175.841 132.323 176.804 135.45 178.727 137.605C180.63 139.738 182.977 140.606 185.772 140.759C190.673 141.028 195.693 140.779 200.609 140.771L229.748 140.752L249.229 140.766C252.377 140.767 255.858 141.061 258.961 140.65C260.883 140.395 262.509 139.621 263.946 138.311C266.31 136.156 267.424 132.983 267.554 129.841C267.779 124.349 265.479 119.224 261.797 115.255C255.314 108.27 246.18 105.431 236.867 105.066Z" fill="#080717"/>
<path d="M174.418 142.035L174.418 152.123L249.86 152.111L268.742 152.121C270.561 152.121 274.41 152.4 276.044 152.034C276.487 151.292 276.514 143.616 276.287 142.536C276.244 142.337 276.177 142.216 276.078 142.041L174.418 142.035Z" fill="#080717"/>
<path d="M163.849 212.035C157.101 212.156 150.336 212.075 143.586 212.08L105.884 212.084L83.2002 212.077C79.3002 212.079 75.2954 212.271 71.4058 212.038C70.7297 211.998 70.1738 211.789 69.6106 211.418C68.8051 210.889 68.6219 210.341 68.4394 209.433C67.8818 206.658 68.2359 200.914 68.2352 197.815L68.248 171.433L68.2925 59.6755L68.2887 34.9043C68.2882 30.5549 68.0576 26.0654 68.3709 21.7352C68.4093 21.2048 68.4477 20.7201 68.7681 20.2759C68.8065 20.2226 68.8496 20.1729 68.8889 20.1205C69.6014 19.1751 70.2777 18.831 71.3636 18.4266C74.8329 18.1544 78.5024 18.3861 81.9894 18.3869L103.198 18.3871L143.291 18.3856C149.616 18.3879 155.951 18.3 162.273 18.386C163.127 18.3977 164.086 18.3404 164.88 18.6839C165.812 19.087 166.722 19.9259 167.056 20.9115C167.587 22.4757 167.265 30.2128 167.266 32.4659L167.244 58.9891L167.172 179.206L167.18 198.36C167.183 201.613 167.365 204.991 167.143 208.231C167.098 208.885 167.047 209.612 166.703 210.186C166.07 211.24 164.989 211.745 163.849 212.035ZM138.968 60.3799C138.947 60.9385 139.022 61.3639 138.705 61.8372L138.592 61.8524C138.27 61.8983 138.045 61.9522 137.758 62.1047C137.137 63.099 137.322 66.7229 137.594 67.8843C137.655 68.1444 137.701 68.3335 137.942 68.475C138.589 68.854 139.765 68.6934 140.509 68.6817L146.298 68.5905C148.997 68.557 153.41 67.9935 154.552 71.3038C155.11 72.9219 154.797 85.6682 154.796 88.2389L154.796 125.507C154.802 135.656 155.102 145.949 154.885 156.079C154.863 157.094 154.868 158.105 154.377 159.023C153.81 160.083 152.746 160.85 151.74 161.452C149.79 161.403 139.94 161.141 138.748 161.52C138.47 162.644 138.24 162.19 137.89 162.8C137.501 163.478 137.78 168.343 137.783 169.279L147.264 169.321C149.631 169.33 152.217 169.548 154.534 169.027C156.194 168.654 157.846 167.89 159.055 166.67C159.462 166.259 159.851 165.744 160.107 165.225C162.309 162.748 162.791 160.297 162.803 157.076L162.8 95.7363L162.802 77.9367C162.802 74.9701 163.069 71.7319 162.674 68.8061C162.394 66.7343 161.317 64.7667 159.842 63.3052C158.589 62.0638 157.046 61.1207 155.335 60.6723C152.46 59.9192 142.56 60.3601 138.968 60.3799ZM76.6129 25.0917C76.3553 25.4963 76.3385 25.8702 76.3232 26.3329C76.1525 31.525 76.3122 36.7746 76.3144 41.9716L76.3129 72.4226L76.3005 167.059L76.2906 193.673C76.2861 196.037 75.9576 202.433 76.373 204.312C76.4375 204.603 76.495 204.598 76.7408 204.773L77.262 204.711C77.4136 200.221 77.3249 195.704 77.3222 191.212L77.3316 169.422L77.3301 95.0683L77.3658 40.0218C77.3633 38.1593 77.6116 26.5456 77.2353 25.5014C77.0253 25.3217 76.8742 25.1935 76.6129 25.0917ZM150.476 72.4347C150.127 74.6709 150.346 77.2384 150.346 79.5065L150.346 93.329L150.335 141.56C150.334 143.834 150.028 155.894 150.569 156.897L150.915 157.041C151.109 156.952 151.321 156.873 151.5 156.757L151.554 96.5288L151.538 79.9299C151.538 78.0138 151.669 76.0828 151.614 74.1689C151.599 73.6458 151.587 73.1478 151.362 72.6663C151.052 72.492 150.82 72.463 150.476 72.4347Z" fill="#FEFEFE"/>
<path d="M166.667 18.4267C168.425 18.391 170.705 18.1063 172.06 19.4864C172.76 20.1996 172.932 20.963 173.005 21.9296C173.328 26.1555 173.111 30.5785 173.111 34.8248L173.111 59.1403L173.148 143.343L173.17 150.554L173.151 187.211C173.15 194.039 173.308 200.902 173.14 207.726C173.11 208.926 173.145 210.289 172.171 211.148C170.837 212.323 168.402 211.931 166.764 211.881C167.545 210.967 168.167 210.127 168.262 208.883C168.439 206.569 168.312 204.165 168.314 201.84L168.323 188.308L168.348 145.877L168.471 23.9627C168.455 21.5871 168.446 20.1818 166.667 18.4267Z" fill="#FEFEFE"/>
<path d="M174.34 22.1551C174.086 20.629 173.781 19.5844 172.703 18.4414L243.382 18.4772L266.443 18.4548C270.339 18.4531 274.423 18.1997 278.292 18.5183C279.174 18.5908 279.915 19.0903 280.475 19.7555C281.144 20.5526 281.317 21.3165 281.332 22.3305C281.579 38.2297 281.341 54.1716 281.328 70.0739L281.341 150.596L281.319 190.778L281.339 202.825C281.344 204.841 281.519 207.052 281.265 209.045C281.171 209.782 281.084 210.041 280.5 210.5C280.457 210.631 280.207 211.008 280.106 211.104C279.448 211.731 278.198 211.685 277.353 211.722C277.403 211.595 277.432 211.535 277.466 211.409C277.856 209.853 277.573 203.897 277.573 201.76L277.576 175.44L277.553 72.0568L277.56 39.5529C277.562 34.1348 277.674 28.6914 277.555 23.2756C277.546 22.8491 277.522 22.5284 277.302 22.152L174.34 22.1551Z" fill="#0AB69C"/>
<path d="M77.262 204.711L76.7408 204.773C76.495 204.598 76.4375 204.603 76.373 204.312C75.9576 202.433 76.2861 196.037 76.2906 193.673L76.3005 167.059L76.3128 72.4226L76.3144 41.9716C76.3122 36.7746 76.1525 31.5251 76.3232 26.333C76.3385 25.8703 76.3553 25.4963 76.6128 25.0918C76.8742 25.1935 77.0253 25.3218 77.2353 25.5015C77.6116 26.5457 77.3633 38.1593 77.3658 40.0218L77.33 95.0684L77.3316 169.422L77.3222 191.212C77.3249 195.704 77.4136 200.221 77.262 204.711Z" fill="#080717"/>
<path d="M138.968 60.38C142.559 60.3602 152.46 59.9193 155.335 60.6725C157.046 61.1208 158.589 62.0639 159.842 63.3053C161.317 64.7669 162.394 66.7344 162.673 68.8062C163.069 71.732 162.802 74.9702 162.802 77.9368L162.799 95.7365L162.803 157.076C162.791 160.297 162.309 162.748 160.107 165.225C158.816 166.087 157.811 167.071 156.286 167.57C153.359 168.529 142.451 168.046 138.706 168.03C138.691 165.86 138.655 163.688 138.748 161.52C139.94 161.141 149.79 161.403 151.74 161.452C152.665 161.413 153.549 161.056 154.242 160.441C155.254 159.557 155.751 158.381 155.832 157.055C156.136 152.094 155.869 146.943 155.872 141.966L155.877 111.411L155.883 85.3213C155.889 80.8408 156.173 76.1492 155.83 71.6902C155.751 70.6563 155.379 69.6368 154.666 68.8682C154.04 68.1944 153.187 67.7353 152.297 67.5208C149.706 66.8959 142.348 67.4548 139.077 67.3157C138.954 65.0083 139.138 62.689 138.968 60.38ZM140.159 61.5026L140.16 66.2695C143.133 66.2578 150.189 65.8717 152.719 66.495C153.721 66.7335 154.638 67.2434 155.369 67.9687C156.212 68.7979 156.687 69.7799 156.822 70.9535C157.171 73.9873 156.944 77.2846 156.942 80.3446L156.928 98.2074L156.941 154.804C156.936 157.037 157.1 159.146 155.392 160.851C154.647 161.582 153.72 162.1 152.707 162.35C150.318 162.942 142.616 162.533 139.809 162.519L139.811 166.978L144.528 167.012C149.133 167.044 155.634 167.96 159.154 164.542C160.905 162.842 161.628 160.733 161.645 158.34L161.638 95.1583L161.585 78.809C161.596 75.558 161.893 72.1001 161.48 68.8866C161.252 67.1084 160.298 65.3313 159.041 64.069C155.73 60.7421 151.01 61.4296 146.732 61.4599L140.159 61.5026Z" fill="#080717"/>
<path d="M151.74 161.452C152.746 160.85 153.81 160.083 154.377 159.023C154.867 158.105 154.863 157.094 154.885 156.079C155.102 145.949 154.802 135.656 154.796 125.507L154.796 88.2389C154.797 85.6682 155.11 72.9218 154.552 71.3038C153.41 67.9935 148.997 68.557 146.298 68.5905L140.509 68.6817C139.765 68.6933 138.589 68.8539 137.942 68.475C137.7 68.3335 137.654 68.1444 137.594 67.8843C137.322 66.7229 137.137 63.099 137.757 62.1047C138.045 61.9522 138.269 61.8982 138.592 61.8524L138.705 61.8371C139.022 61.3639 138.947 60.9385 138.968 60.3799C139.138 62.6889 138.954 65.0082 139.077 67.3156C142.348 67.4546 149.706 66.8958 152.297 67.5207C153.187 67.7352 154.04 68.1943 154.666 68.8681C155.379 69.6367 155.751 70.6562 155.83 71.6901C156.173 76.149 155.889 80.8407 155.883 85.3212L155.877 111.41L155.872 141.966C155.868 146.943 156.136 152.094 155.832 157.055C155.751 158.381 155.254 159.557 154.242 160.441C153.549 161.056 152.665 161.413 151.74 161.452Z" fill="#0AB69C"/>
<path d="M140.161 66.2695L140.16 61.5026L146.733 61.46C151.011 61.4296 155.731 60.7421 159.042 64.069C160.298 65.3313 161.252 67.1084 161.481 68.8867C161.894 72.1002 161.596 75.558 161.585 78.809L161.638 95.1583L161.646 158.34C161.629 160.733 160.905 162.842 159.154 164.542C155.634 167.96 149.134 167.044 144.528 167.012L139.812 166.978L139.809 162.519C142.616 162.533 150.318 162.942 152.707 162.35C153.72 162.1 154.648 161.583 155.392 160.851C157.101 159.146 156.937 157.037 156.941 154.804L156.929 98.2074L156.942 80.3447C156.944 77.2846 157.171 73.9873 156.822 70.9535C156.687 69.7799 156.212 68.798 155.369 67.9687C154.638 67.2434 153.721 66.7336 152.72 66.495C150.189 65.8717 143.133 66.2578 140.161 66.2695Z" fill="#0AB69C"/>
<path d="M173.688 212.076C173.688 212.076 175 211 175 210C175 209 175 202 175 202H278.107C278.206 202.175 277.957 202.302 278 202.5C278.227 203.581 279.442 210.758 279 211.5C277 212.5 271.143 212.086 269.324 212.086L250.442 212.076H173.688Z" fill="#0AB69C"/>
<path d="M137.783 169.279C137.779 168.343 137.501 163.478 137.89 162.8C138.24 162.19 138.47 162.644 138.748 161.52C138.655 163.688 138.691 165.86 138.705 168.029C142.451 168.046 153.359 168.529 156.286 167.57C157.811 167.071 158.816 166.087 160.107 165.225C159.851 165.744 159.461 166.259 159.054 166.67C157.846 167.89 156.194 168.654 154.534 169.027C152.217 169.548 149.63 169.33 147.264 169.32L137.783 169.279Z" fill="#0AB69C"/>
</g>
<path d="M304.523 79.4072C305.239 80.0872 306.647 81.9903 307.625 82.0302C307.811 81.8006 307.949 81.5567 308.061 81.2842C308.622 79.9147 310.625 74.0142 310.165 72.8803C308.577 73.1031 302.582 75.0975 301.632 76.1321C301.754 77.1817 303.74 78.6497 304.523 79.4072ZM309.049 74.2258C308.495 76.3562 307.889 78.5217 307.171 80.6036C306.478 79.8661 305.798 79.1104 305.085 78.393C304.366 77.6943 303.645 77.0078 302.886 76.3525C305.019 75.8206 306.959 74.8197 309.049 74.2258Z" fill="#080717"/>
<path d="M307.171 80.6037C307.889 78.5217 308.495 76.3563 309.049 74.2258C306.959 74.8198 305.019 75.8207 302.886 76.3525C303.646 77.0079 304.366 77.6943 305.085 78.393C305.798 79.1105 306.478 79.8661 307.171 80.6037Z" fill="#0AB69C"/>
<path d="M315.095 80.7281C315.105 80.6141 315.138 80.4151 315.112 80.2971C315.017 79.8671 314.731 79.7403 314.406 79.4854C313.798 79.1951 313.201 78.827 312.512 78.8445L312.263 79.0362C312.358 79.4279 312.663 79.6978 312.989 79.9174C313.551 80.2963 314.439 80.549 315.095 80.7281Z" fill="#080717"/>
<path d="M320.174 83.6445C320.183 83.63 320.192 83.6162 320.2 83.6011C320.3 83.3984 320.465 83.163 320.391 82.9426C320.142 82.2037 318.361 81.4853 317.682 81.1323C317.552 81.3017 317.472 81.4927 317.379 81.6843C317.73 82.5834 319.339 83.199 320.174 83.6445Z" fill="#080717"/>
<path d="M325.195 87.0853C325.487 86.9914 325.511 86.9734 325.701 86.7324C325.692 86.679 325.687 86.6248 325.674 86.572C325.502 85.8539 323.727 84.8502 323.112 84.4219C322.86 84.4716 322.78 84.5607 322.606 84.7448C322.775 85.6469 324.455 86.5604 325.195 87.0853Z" fill="#080717"/>
<path d="M330.191 91.3844C330.428 91.275 330.505 91.172 330.673 90.9787C330.539 89.9309 329.155 89.0132 328.384 88.3383C328.151 88.431 328.054 88.5159 327.87 88.679C327.926 89.6061 329.541 90.7296 330.191 91.3844Z" fill="#080717"/>
<path d="M334.801 96.4724C334.99 96.3297 335.083 96.1987 335.227 96.0124C335.177 94.8515 333.632 93.5711 332.84 92.8124C332.658 92.9515 332.573 93.0782 332.442 93.2632C332.66 94.3425 334.072 95.6368 334.801 96.4724Z" fill="#080717"/>
<path d="M338.522 101.935C338.723 101.78 338.813 101.657 338.965 101.457C338.949 100.324 337.734 98.979 337.101 98.0766C336.912 98.2331 336.644 98.3635 336.615 98.6159C336.515 99.4925 338.001 101.235 338.522 101.935Z" fill="#080717"/>
<path d="M341.235 107.82C341.623 107.67 341.699 107.688 341.911 107.314C341.9 106.137 341.126 104.974 340.585 103.955L340.061 104.183C339.765 105.089 340.845 106.914 341.235 107.82Z" fill="#080717"/>
<path d="M343.287 114.002C343.308 113.992 343.33 113.983 343.35 113.972C343.578 113.845 343.77 113.782 343.845 113.522C344.123 112.551 343.38 110.832 342.903 109.987C342.732 110.089 342.44 110.196 342.376 110.392C342.1 111.225 343.005 113.194 343.287 114.002Z" fill="#080717"/>
<path d="M344.132 120.333C344.178 120.325 344.224 120.32 344.27 120.31C344.488 120.262 344.693 120.228 344.808 120.024C345.285 119.176 344.706 117.09 344.492 116.174C344.304 116.214 344.117 116.289 343.934 116.349C343.422 117.219 343.968 119.352 344.132 120.333Z" fill="#080717"/>
<path d="M344.23 126.743C344.452 126.673 344.562 126.689 344.698 126.487C345.232 125.697 345.163 123.531 344.942 122.644L344.397 122.86C344.298 122.998 344.22 123.111 344.167 123.273C343.887 124.142 343.849 125.91 344.23 126.743Z" fill="#080717"/>
<path d="M342.885 132.889L343.453 132.767C343.566 132.654 343.656 132.562 343.732 132.42C344.205 131.53 344.447 129.974 344.195 129.003C344.021 129.065 343.89 129.128 343.75 129.253C343.136 129.799 342.843 132.097 342.885 132.889Z" fill="#080717"/>
<path d="M340.99 139.053C341.283 138.959 341.547 138.871 341.723 138.599C342.263 137.767 342.901 136.24 342.723 135.248C342.402 135.291 342.186 135.351 341.993 135.621C341.427 136.414 340.813 138.091 340.99 139.053Z" fill="#080717"/>
<path d="M338.145 144.786C338.805 144.544 339.106 144.065 339.456 143.481C339.888 142.759 340.299 141.915 340.076 141.069C339.682 141.231 339.556 141.342 339.326 141.697C338.782 142.535 337.94 143.781 338.145 144.786Z" fill="#080717"/>
<path d="M334.652 150.191C334.709 150.166 334.766 150.143 334.822 150.117C335.622 149.745 336.681 148.288 336.937 147.433C337.045 147.068 336.937 146.978 336.773 146.671C335.972 147.033 334.954 148.534 334.608 149.347C334.44 149.741 334.507 149.81 334.652 150.191Z" fill="#080717"/>
<path d="M330.452 155.231C331.362 154.904 332.45 153.577 332.891 152.713C333.08 152.341 332.992 152.261 332.869 151.899C332.804 151.916 332.739 151.931 332.676 151.951C331.994 152.162 330.672 153.749 330.379 154.415C330.23 154.754 330.343 154.907 330.452 155.231Z" fill="#080717"/>
<path d="M325.768 159.411C326.706 159.339 327.725 158.304 328.313 157.616C328.704 157.158 328.769 157.015 328.722 156.445C328.05 156.545 327.536 157 327.042 157.437C326.4 158.004 325.819 158.531 325.768 159.411Z" fill="#080717"/>
<path d="M320.955 163.345C321.871 163.259 322.867 162.406 323.498 161.768C323.893 161.369 323.914 161.184 323.916 160.653C323.883 160.654 323.851 160.653 323.818 160.656C322.986 160.72 321.691 161.884 321.161 162.514C320.877 162.851 320.923 162.924 320.955 163.345Z" fill="#080717"/>
<path d="M315.986 166.965C316.773 166.686 318.54 165.764 318.881 164.984C318.985 164.746 318.81 164.516 318.714 164.286C317.882 164.635 316.485 165.405 315.987 166.195C315.818 166.463 315.931 166.667 315.986 166.965Z" fill="#080717"/>
<path d="M310.364 169.928C311.3 169.707 312.836 169.164 313.5 168.448C313.795 168.13 313.708 167.934 313.69 167.533C312.793 167.651 311.333 168.356 310.645 168.941C310.296 169.238 310.368 169.511 310.364 169.928Z" fill="#080717"/>
<path d="M304.799 172.252C305.726 172.193 307.288 171.857 307.908 171.109C308.141 170.827 308.027 170.564 307.987 170.228C307.139 170.36 305.614 170.933 304.982 171.541C304.756 171.759 304.816 171.954 304.799 172.252Z" fill="#080717"/>
<path d="M43.4503 163.593C42.7346 162.913 41.3266 161.009 40.3478 160.97C40.1626 161.199 40.024 161.443 39.912 161.716C39.351 163.085 37.3486 168.986 37.8086 170.119C39.3964 169.897 45.3907 167.902 46.3408 166.868C46.2193 165.818 44.233 164.35 43.4503 163.593ZM38.924 168.774C39.4786 166.644 40.0844 164.478 40.8023 162.396C41.495 163.134 42.1752 163.889 42.8884 164.607C43.6076 165.305 44.3277 165.992 45.0873 166.647C42.954 167.179 41.0143 168.18 38.924 168.774Z" fill="#080717"/>
<path d="M40.8021 162.396C40.0843 164.478 39.4784 166.643 38.9238 168.774C41.0141 168.18 42.9539 167.179 45.0871 166.647C44.3275 165.992 43.6074 165.305 42.8882 164.607C42.1751 163.889 41.4948 163.134 40.8021 162.396Z" fill="#0AB69C"/>
<path d="M32.8781 162.272C32.868 162.386 32.8353 162.585 32.8614 162.703C32.9566 163.133 33.2418 163.26 33.567 163.515C34.1756 163.805 34.7722 164.173 35.4613 164.156L35.7105 163.964C35.6148 163.572 35.3106 163.302 34.9846 163.083C34.422 162.704 33.5338 162.451 32.8781 162.272Z" fill="#080717"/>
<path d="M27.799 159.356C27.7906 159.37 27.781 159.384 27.7736 159.399C27.6735 159.602 27.5085 159.837 27.5826 160.058C27.8316 160.797 29.6123 161.515 30.2912 161.868C30.4212 161.699 30.5013 161.508 30.5944 161.316C30.2429 160.417 28.6342 159.801 27.799 159.356Z" fill="#080717"/>
<path d="M22.7784 155.915C22.4863 156.009 22.4624 156.027 22.2718 156.268C22.2808 156.321 22.2861 156.375 22.2988 156.428C22.4715 157.146 24.2465 158.15 24.861 158.578C25.1129 158.528 25.1936 158.439 25.3668 158.255C25.1986 157.353 23.5185 156.44 22.7784 155.915Z" fill="#080717"/>
<path d="M17.782 151.616C17.5447 151.725 17.4686 151.828 17.3 152.021C17.4344 153.069 18.8182 153.987 19.5892 154.662C19.8218 154.569 19.919 154.484 20.1032 154.321C20.0472 153.394 18.4326 152.27 17.782 151.616Z" fill="#080717"/>
<path d="M13.172 146.528C12.9834 146.67 12.8906 146.801 12.746 146.988C12.7963 148.149 14.3408 149.429 15.1334 150.188C15.3147 150.049 15.4006 149.922 15.5309 149.737C15.313 148.657 13.9008 147.363 13.172 146.528Z" fill="#080717"/>
<path d="M9.45072 141.065C9.25004 141.22 9.15992 141.343 9.00774 141.543C9.02406 142.676 10.2388 144.021 10.8726 144.923C11.0614 144.767 11.3288 144.636 11.3577 144.384C11.4581 143.507 9.97175 141.765 9.45072 141.065Z" fill="#080717"/>
<path d="M6.7377 135.18C6.35064 135.33 6.2746 135.312 6.06186 135.686C6.07323 136.863 6.84741 138.026 7.3879 139.045L7.91181 138.817C8.20834 137.911 7.12831 136.086 6.7377 135.18Z" fill="#080717"/>
<path d="M4.68629 128.998C4.66515 129.008 4.6434 129.017 4.62288 129.028C4.39518 129.155 4.20298 129.218 4.12855 129.478C3.85059 130.449 4.59269 132.168 5.06991 133.013C5.24083 132.911 5.53289 132.804 5.59763 132.608C5.87279 131.775 4.96768 129.806 4.68629 128.998Z" fill="#080717"/>
<path d="M3.84122 122.667C3.79532 122.675 3.74892 122.68 3.70351 122.69C3.4851 122.738 3.28026 122.772 3.1655 122.976C2.68864 123.824 3.26686 125.91 3.481 126.826C3.66891 126.786 3.8562 126.711 4.03883 126.651C4.55088 125.781 4.00527 123.648 3.84122 122.667Z" fill="#080717"/>
<path d="M3.74336 116.257C3.5214 116.327 3.41156 116.311 3.27482 116.513C2.74125 117.303 2.81009 119.469 3.03146 120.356L3.57658 120.14C3.67478 120.002 3.75351 119.889 3.80609 119.727C4.08636 118.858 4.12462 117.09 3.74336 116.257Z" fill="#080717"/>
<path d="M5.08861 110.111L4.52001 110.233C4.40723 110.346 4.31739 110.438 4.24164 110.58C3.76772 111.47 3.52636 113.026 3.77828 113.997C3.95189 113.935 4.08332 113.872 4.22354 113.747C4.83686 113.201 5.13047 110.903 5.08861 110.111Z" fill="#080717"/>
<path d="M6.98282 103.947C6.69052 104.041 6.42663 104.129 6.24975 104.401C5.71033 105.233 5.07213 106.76 5.25035 107.752C5.5709 107.709 5.78742 107.649 5.98003 107.379C6.54599 106.586 7.15971 104.909 6.98282 103.947Z" fill="#080717"/>
<path d="M9.8283 98.2139C9.16834 98.4559 8.86665 98.9351 8.5172 99.5192C8.08511 100.241 7.6744 101.085 7.89685 101.931C8.29134 101.769 8.41732 101.658 8.64757 101.303C9.19147 100.465 10.033 99.2187 9.8283 98.2139Z" fill="#080717"/>
<path d="M13.321 92.8087C13.2644 92.8336 13.2073 92.8574 13.1512 92.8835C12.3509 93.2554 11.2918 94.7119 11.0366 95.5675C10.9278 95.9325 11.0366 96.022 11.2 96.3289C12.0016 95.9668 13.0192 94.4664 13.3652 93.6532C13.5331 93.2588 13.4666 93.1901 13.321 92.8087Z" fill="#080717"/>
<path d="M17.5213 87.7695C16.6109 88.0959 15.5228 89.4231 15.0826 90.2871C14.8933 90.6587 14.9815 90.7385 15.1043 91.1008C15.1687 91.0837 15.2338 91.0691 15.2975 91.0492C15.979 90.8377 17.3007 89.2508 17.5937 88.5853C17.7429 88.2465 17.6301 88.0929 17.5213 87.7695Z" fill="#080717"/>
<path d="M22.2049 83.5887C21.2673 83.6611 20.248 84.6961 19.6606 85.384C19.2691 85.8423 19.2042 85.9845 19.2509 86.5546C19.9233 86.4553 20.4373 85.9998 20.9314 85.5633C21.5734 84.9962 22.1542 84.4693 22.2049 83.5887Z" fill="#080717"/>
<path d="M27.0182 79.6546C26.1022 79.741 25.1057 80.594 24.4753 81.2316C24.08 81.6312 24.0588 81.8156 24.0574 82.3464C24.0898 82.3457 24.1224 82.3464 24.1549 82.3441C24.987 82.2797 26.2826 81.1162 26.812 80.4861C27.0958 80.1484 27.0506 80.0757 27.0182 79.6546Z" fill="#080717"/>
<path d="M31.9869 76.035C31.2 76.3136 29.4336 77.2359 29.0921 78.016C28.9877 78.2539 29.1629 78.4835 29.259 78.7141C30.0912 78.365 31.488 77.5945 31.986 76.805C32.1549 76.537 32.0417 76.3326 31.9869 76.035Z" fill="#080717"/>
<path d="M37.6092 73.0721C36.6734 73.2931 35.1373 73.8363 34.4735 74.5521C34.1784 74.8704 34.2655 75.0662 34.2836 75.4668C35.1805 75.3491 36.64 74.6441 37.3282 74.0592C37.6774 73.7624 37.6055 73.4892 37.6092 73.0721Z" fill="#080717"/>
<path d="M43.1744 70.7486C42.247 70.8071 40.6855 71.1429 40.0652 71.8917C39.8321 72.1729 39.9465 72.4367 39.986 72.7721C40.8342 72.6406 42.3591 72.0677 42.9916 71.4588C43.2175 71.2415 43.1572 71.0466 43.1744 70.7486Z" fill="#080717"/>
<defs>
<clipPath id="clip0_390_1344">
<rect width="322" height="230" fill="white" transform="translate(18)"/>
</clipPath>
</defs>
</svg>
