<svg width="379" height="303" viewBox="0 0 379 303" fill="none" xmlns="http://www.w3.org/2000/svg">
<g clip-path="url(#clip0_390_1440)">
<path d="M0 0H378.677C378.879 0.356818 378.959 0.603142 378.979 1.01289C379.098 3.5859 379 6.20114 379 8.77975L379.003 23.589V68.7289V252.558L379 290.075C379 292.106 379.296 301.162 378.908 302.497C378.855 302.675 378.757 302.837 378.677 303H0V0ZM219.575 13.9276C214.526 14.7139 208.823 16.5244 203.81 17.7869L171.681 25.8587L129.583 36.4494C125.826 37.4214 122.063 38.3724 118.295 39.3027C115.991 39.8608 113.544 40.2875 111.308 41.0731C109.316 41.7723 107.762 42.9639 106.508 44.6626C106.111 45.2011 105.769 45.7879 105.428 46.3631C103.832 45.5932 101.978 44.5889 100.155 44.6759C97.6067 44.7975 91.1584 46.7978 88.1788 47.5411C78.2321 49.9704 68.2997 52.4589 58.3826 55.0063C54.3528 56.0192 50.3152 57.0007 46.2703 57.9505C43.9454 58.5003 41.5064 58.9335 39.2532 59.7224C36.6508 60.6272 34.5234 62.5426 33.3523 65.0355C32.6689 66.4762 32.4235 67.9356 32.3924 69.5213C32.1188 83.4617 32.3681 97.4672 32.3731 111.414L32.377 190.648L32.3716 241.983L32.3708 257.813C32.3607 260.814 32.2097 263.888 32.3832 266.882C32.438 267.825 32.5602 268.783 32.8934 269.672C33.5403 271.397 35.0794 273.195 36.766 273.968C38.9686 274.978 42.1164 274.952 44.4614 274.602C46.3156 274.325 48.1807 273.705 49.9898 273.214C53.0562 272.367 56.1308 271.55 59.2131 270.762L87.4241 263.457C93.3705 261.88 99.3155 260.165 105.307 258.778C106.009 261.517 107.327 264.415 109.874 265.909C112.936 267.704 121.915 269.631 125.739 270.679L156.973 279.178L191.601 288.647C195.606 289.723 201.67 291.94 205.664 292.135C206.934 292.197 208.359 291.866 209.591 291.582C218.677 289.49 227.697 287.01 236.75 284.769C253.494 280.693 270.21 276.509 286.9 272.216C290.016 271.399 301.258 268.994 303.301 267.806C305.444 266.561 307.049 264.372 307.671 261.987C308.456 258.979 308.056 252.76 308.065 249.483L308.097 225.545L308.071 130.217C308.062 129.315 308.106 128.359 307.831 127.494C318.449 128.589 327.231 127.014 335.711 120.157C342.051 115.029 346.365 107.498 347.167 99.3485C347.981 91.2572 345.476 83.1821 340.227 76.97C334.331 69.9841 325.905 65.6238 316.794 64.8473C313.759 64.5905 310.679 64.7852 307.653 65.0524C308.166 63.3397 307.991 46.6579 307.662 44.2345C307.485 42.9582 307.076 41.7249 306.457 40.5958C304.849 37.6114 302.407 35.8582 299.206 34.9246C282.312 29.9994 265.317 25.3246 248.348 20.6672L233.939 16.5982C230.987 15.7603 228.016 14.8324 225.009 14.2179C223.223 13.8403 221.39 13.7424 219.575 13.9276Z" fill="#FEFEFE"/>
<path fill-rule="evenodd" clip-rule="evenodd" d="M105.496 46.2484C105.474 46.2867 105.451 46.325 105.428 46.3632C105.282 46.2926 105.134 46.2201 104.983 46.1466C103.493 45.4183 101.811 44.597 100.155 44.676C98.298 44.7646 94.3693 45.8511 91.2216 46.7216C90.0503 47.0456 88.9871 47.3396 88.1791 47.5412C78.2324 49.9705 68.2999 52.459 58.3829 55.0064C54.353 56.0192 50.3155 57.0007 46.2706 57.9506C45.6585 58.0953 45.0386 58.232 44.4162 58.3691C42.6744 58.7531 40.9135 59.1412 39.2534 59.7224C36.6511 60.6273 34.5236 62.5426 33.3526 65.0356C32.6692 66.4763 32.4237 67.9357 32.3927 69.5214C32.2061 79.0251 32.2626 88.5591 32.3191 98.084C32.3455 102.531 32.3718 106.975 32.3734 111.414L32.3773 190.648L32.3719 241.983L32.371 257.813C32.368 258.719 32.3521 259.631 32.3362 260.546C32.2994 262.662 32.2623 264.792 32.3835 266.882C32.4382 267.825 32.5605 268.783 32.8936 269.672C33.5406 271.398 35.0797 273.195 36.7663 273.968C38.9689 274.978 42.1167 274.952 44.4617 274.602C45.8533 274.394 47.2511 273.993 48.6268 273.598C49.084 273.467 49.5388 273.336 49.9901 273.214C53.0564 272.367 56.1311 271.55 59.2134 270.762L87.4243 263.457C89.1502 262.999 90.876 262.53 92.6029 262.061C96.8257 260.912 101.055 259.763 105.307 258.778C106.009 261.517 107.328 264.415 109.874 265.909C112.225 267.287 118.064 268.743 122.38 269.819C123.686 270.145 124.852 270.436 125.74 270.679L156.974 279.178L191.602 288.647C192.684 288.938 193.916 289.312 195.217 289.707C198.732 290.774 202.749 291.993 205.664 292.135C206.925 292.196 208.338 291.871 209.564 291.589L209.591 291.582C215.23 290.283 220.844 288.836 226.456 287.388C229.886 286.504 233.316 285.62 236.75 284.769C253.494 280.693 270.211 276.509 286.9 272.216C287.695 272.008 289.017 271.696 290.581 271.328C295.151 270.252 301.779 268.691 303.301 267.806C305.445 266.561 307.05 264.372 307.671 261.987C308.271 259.689 308.179 255.516 308.106 252.212C308.084 251.193 308.063 250.256 308.065 249.483L308.098 225.545L308.071 130.217C308.07 130.088 308.07 129.958 308.069 129.828C308.068 129.044 308.067 128.235 307.831 127.494C318.449 128.59 327.231 127.014 335.711 120.157C342.051 115.029 346.365 107.498 347.167 99.3485C347.982 91.2572 345.477 83.1821 340.227 76.97C334.332 69.9842 325.905 65.6238 316.794 64.8474C313.759 64.5905 310.68 64.7852 307.654 65.0524C308.166 63.3398 307.991 46.6579 307.662 44.2345C307.485 42.9583 307.076 41.725 306.457 40.5958C304.85 37.6114 302.407 35.8582 299.206 34.9246C282.312 29.9994 265.317 25.3247 248.348 20.6673L233.94 16.5983C233.329 16.425 232.718 16.2479 232.105 16.0704C229.757 15.3899 227.395 14.7053 225.009 14.218C223.224 13.8403 221.39 13.7424 219.575 13.9277C216.032 14.4794 212.167 15.5356 208.444 16.5528C206.862 16.9851 205.305 17.4104 203.81 17.787L171.681 25.8587L129.584 36.4494C125.826 37.4214 122.063 38.3725 118.295 39.3028C117.634 39.4628 116.962 39.612 116.286 39.762C114.605 40.1351 112.903 40.5128 111.308 41.0731C109.317 41.7723 107.762 42.9639 106.508 44.6627C106.138 45.1654 105.815 45.7102 105.496 46.2484ZM177.998 69.1331C180.447 69.8166 182.897 70.5002 185.353 71.1544C187.312 71.7457 189.281 72.3002 191.26 72.8171L191.267 116.67C189.294 117.585 187.338 118.537 185.399 119.523L183.543 120.59C181.102 119.865 178.642 119.214 176.181 118.562C174.771 118.189 173.361 117.815 171.955 117.428L140.745 108.954L130.166 106.103C129.618 105.956 129.064 105.815 128.508 105.674C126.921 105.27 125.318 104.862 123.802 104.299C122.689 103.886 121.77 103.301 120.971 102.421C119.885 101.224 118.863 99.398 118.585 97.7969C118.337 96.37 118.371 94.8139 118.404 93.3137C118.414 92.8353 118.425 92.3625 118.426 91.9014L118.448 81.8429L118.419 64.9687C118.415 64.0497 118.405 63.129 118.396 62.2076C118.368 59.5468 118.339 56.8797 118.455 54.2285C122.434 55.4417 126.438 56.5567 130.443 57.6718C133.25 58.4534 136.057 59.2351 138.855 60.0506C139.104 64.2727 140.215 68.3724 142.564 71.9297C145.082 75.7427 148.983 79.0114 153.559 79.892C156.666 80.4897 159.968 80.0234 162.6 78.206C166.543 75.4828 168.087 71.163 168.878 66.6476C171.926 67.4389 174.962 68.286 177.998 69.1331ZM180.31 143.444C181.96 143.911 183.604 144.377 185.237 144.809L191.205 146.472L191.199 191.166C190.692 191.34 190.182 191.51 189.671 191.68C188.25 192.152 186.822 192.627 185.449 193.197C184.881 193.418 184.301 193.612 183.721 193.806C183.518 193.874 183.315 193.942 183.113 194.011C181.36 193.58 179.619 193.06 177.879 192.541C176.861 192.237 175.844 191.933 174.825 191.648C167.493 189.62 160.172 187.552 152.862 185.444L132.961 179.924C132.076 179.672 131.18 179.43 130.282 179.187C128.209 178.628 126.124 178.064 124.122 177.361C123.105 177.004 122.28 176.497 121.515 175.729C120.301 174.511 119.174 172.812 118.813 171.121C118.205 168.273 118.324 163.215 118.419 159.135C118.45 157.851 118.478 156.663 118.48 155.672L118.52 127.22C122.341 128.119 126.132 129.211 129.922 130.303C132.978 131.183 136.034 132.064 139.106 132.843C139.184 137.756 140.981 142.728 143.93 146.648C146.582 150.173 150.363 152.93 154.815 153.515C157.941 153.926 160.984 153.212 163.495 151.276C166.829 148.706 168.516 144.679 169.07 140.604C172.813 141.321 176.578 142.387 180.31 143.444ZM306.52 149.137C306 150.5 306.842 152.868 306.389 153.896C306.57 154.311 306.638 154.61 306.653 155.064C306.79 159.357 306.765 163.672 306.74 167.981C306.728 169.988 306.716 171.993 306.721 173.993L306.709 213.725L306.694 244.359C306.691 245.964 306.707 247.577 306.723 249.193C306.758 252.783 306.794 256.387 306.626 259.942C306.582 260.855 306.422 261.643 306.087 262.496C305.35 264.374 303.97 266.05 302.081 266.847C299.598 267.895 295.981 268.695 292.716 269.418C291.329 269.724 290.005 270.017 288.858 270.309L260.168 277.653L229.872 285.178C225.098 286.416 220.315 287.622 215.525 288.797C214.774 288.983 214.021 289.18 213.267 289.377C211.472 289.847 209.667 290.318 207.858 290.651C206.841 290.838 205.917 290.806 204.946 290.393C203.362 289.72 202.088 287.997 201.512 286.418C201.243 285.677 201.104 284.931 201.042 284.147C200.844 281.623 200.893 279.019 200.942 276.443C200.962 275.39 200.982 274.341 200.984 273.305C200.989 271.549 200.985 269.792 200.982 268.035C200.975 264.196 200.967 260.355 201.043 256.521C200.853 251.029 200.912 245.485 200.97 239.954C201.002 237.003 201.033 234.056 201.027 231.123L200.974 175.74L278.138 156.07L296.532 151.524C297.307 151.33 298.118 151.148 298.942 150.962C301.462 150.396 304.115 149.8 306.303 148.746C306.386 148.88 306.463 148.991 306.52 149.137ZM180.009 214.584C181.782 215.081 183.553 215.579 185.322 216.054L190.991 217.506L190.978 262.051C189.992 262.501 188.981 262.868 187.97 263.235C187.115 263.545 186.261 263.855 185.425 264.214L182.908 265.028C180.75 264.478 178.6 263.862 176.452 263.246C175.133 262.867 173.814 262.489 172.494 262.126L145.819 254.755L132.309 251.064C131.63 250.88 130.945 250.703 130.258 250.526C128.309 250.023 126.345 249.515 124.47 248.84C123.219 248.39 122.122 247.772 121.177 246.828C120.134 245.788 118.966 244.157 118.666 242.694C118.18 240.323 118.287 235.812 118.371 232.242C118.399 231.047 118.425 229.958 118.425 229.09L118.433 198.562C121.196 199.538 124.038 200.314 126.872 201.087C127.821 201.345 128.769 201.604 129.712 201.87C130.587 202.116 131.464 202.373 132.342 202.631C134.716 203.328 137.102 204.028 139.505 204.529C139.603 209.395 141.156 214.12 143.965 218.095C146.373 221.526 149.847 224.226 154.05 224.946C157.061 225.462 160.057 224.852 162.546 223.057C166.331 220.328 167.939 216.044 168.691 211.608C172.475 212.467 176.247 213.527 180.009 214.584ZM107.123 46.154C108.37 43.6827 110.494 42.6585 113.01 41.8496C113.308 41.8235 113.605 41.8019 113.904 41.7993C115.789 41.7813 122.814 43.8828 127.14 45.1768C128.309 45.5267 129.282 45.8176 129.902 45.9915L167.2 56.4208L183.872 60.9812C184.783 61.2279 185.706 61.458 186.63 61.6884C188.43 62.1376 190.237 62.5881 191.983 63.1664C193.506 63.6709 195.139 64.3884 196.281 65.5475C197.848 67.1391 199.09 69.2681 199.445 71.4912C199.863 74.0997 199.794 76.9043 199.727 79.637C199.703 80.6206 199.679 81.5949 199.679 82.5474L199.676 102.167L199.67 173.009C197.505 173.535 195.351 174.104 193.208 174.714L193.136 100.328L193.114 84.2429C193.114 83.2601 193.141 82.2056 193.168 81.1156C193.26 77.5313 193.362 73.5635 192.514 70.4987C191.807 67.9431 190.071 64.5814 187.681 63.2442C185.351 61.9406 181.916 61.1035 178.834 60.3525C177.791 60.0983 176.788 59.8539 175.883 59.6046L157.472 54.5022C149.076 52.1027 140.664 49.7574 132.237 47.4666C130.907 47.096 129.573 46.7012 128.235 46.3055C125.267 45.4271 122.282 44.5439 119.286 43.9093C117.438 43.5178 116.059 43.4311 114.233 43.943C113.105 44.4342 112.127 45.0858 111.293 45.9945C109.816 47.6057 109.4 49.3467 109.264 51.4772C109.108 53.9197 109.146 56.4085 109.183 58.8824C109.199 59.9627 109.215 61.0402 109.215 62.1097L109.217 82.2172L109.24 145.009L109.251 217.218L109.275 241.053C109.277 242.281 109.27 243.511 109.263 244.742C109.245 248.112 109.226 251.487 109.386 254.846C109.035 254.002 108.771 253.205 108.688 252.288C108.408 249.193 108.477 245.95 108.546 242.754C108.576 241.351 108.606 239.956 108.606 238.588L108.604 211.664L108.609 103.072L108.606 68.0762C108.606 66.2591 108.643 64.3756 108.68 62.4712C108.758 58.476 108.837 54.389 108.589 50.6312C108.48 48.9851 107.849 48.2158 106.663 47.1683C106.805 46.8251 106.959 46.4869 107.123 46.154ZM91.4216 51.1778C95.3899 50.2045 99.3608 49.2306 103.287 48.1158C103.641 48.046 104.01 47.9968 104.365 48.0868C107.131 48.79 107.067 51.3972 107.009 53.7428C107 54.0807 106.992 54.4132 106.992 54.7339L107.057 189.872L107.076 231.85C107.078 234.039 107.049 236.238 107.021 238.441C106.963 242.856 106.906 247.284 107.094 251.664C107.144 252.825 107.316 253.787 107.896 254.813C108.595 256.05 109.81 257.059 111.108 257.625C112.909 258.41 115.043 258.921 117.094 259.412C117.943 259.615 118.778 259.815 119.569 260.03L136.611 264.645L191.806 279.63C191.778 283.039 192.105 285.243 194.143 288.03C174.823 282.601 155.464 277.313 136.067 272.164C134.686 271.741 132.184 271.1 129.25 270.348C121.947 268.476 111.967 265.918 109.914 264.327C107.539 262.485 106.833 259.664 106.524 256.826C104.166 257.798 101.626 258.434 99.1247 259.062C98.4508 259.231 97.7796 259.399 97.1155 259.573L83.7851 263.05L44.8831 273.137L44.9112 62.8344C53.7186 60.5286 62.5606 58.3413 71.4018 56.1542C76.4163 54.9137 81.4305 53.6733 86.4381 52.4114C88.0964 51.9934 89.7588 51.5857 91.4216 51.1778ZM39.1131 67.2859C39.9436 65.0974 41.205 64.1819 43.2868 63.2504C43.2979 63.2598 43.3094 63.2686 43.321 63.2774C43.3443 63.2951 43.3676 63.3129 43.3866 63.335C43.5512 63.5283 43.5684 63.7239 43.5749 63.9659C43.6936 68.4316 43.6445 72.9295 43.5955 77.4195C43.5692 79.8287 43.543 82.2356 43.5427 84.6341L43.5788 127.703L43.4683 273.527C42.403 273.174 41.5488 272.751 40.6338 272.104C39.9741 271.395 39.4302 270.684 39.0237 269.802C38.6578 269.007 38.6593 268.033 38.6607 267.141C38.6609 267.007 38.6611 266.875 38.6601 266.745L38.6544 130.698L38.6491 89.8079L38.647 76.5383C38.6471 75.8246 38.6393 75.1072 38.6314 74.3885C38.6118 72.5913 38.592 70.7853 38.6959 69.0047C38.7308 68.4085 38.9023 67.8416 39.1131 67.2859ZM288.71 77.9651C294.586 70.9094 302.958 67.5149 311.905 66.6846L312.13 66.6713C320.756 66.1884 329.443 69.4874 335.827 75.2379C341.589 80.4273 345.029 87.4466 345.379 95.2036C345.654 102.788 342.898 110.17 337.719 115.719C331.77 122.17 323.16 125.749 314.461 126.057C306.685 126.252 298.676 123.658 292.625 118.756C286.626 113.897 282.638 107.061 281.89 99.337C281.149 91.6951 283.817 83.8399 288.71 77.9651ZM115.848 106.574L115.861 103.538C118.791 104.031 121.694 104.838 124.577 105.64C125.53 105.905 126.48 106.17 127.428 106.422C134.102 108.18 140.764 109.982 147.414 111.826C153.892 113.619 160.391 115.345 166.889 117.072C175.104 119.255 183.319 121.438 191.494 123.754L191.497 127.177C189.256 126.763 187.019 126.122 184.803 125.487C184.08 125.28 183.359 125.073 182.641 124.876C177.031 123.287 171.411 121.735 165.781 120.22L134.67 111.814C132.965 111.35 131.256 110.896 129.546 110.442C124.959 109.224 120.366 108.005 115.848 106.574ZM116.626 124.149C116.809 123.986 137.371 118.652 139.123 118.246C139.275 118.262 139.321 118.256 139.355 118.274C139.393 118.294 139.415 118.344 139.551 118.49C138.407 119.438 125.243 122.606 119.364 124.021C118.307 124.275 117.486 124.473 117.012 124.59C116.934 124.596 116.807 124.558 116.705 124.526C116.67 124.516 116.639 124.506 116.613 124.499L116.626 124.149ZM193.245 177.355L199.267 175.769L199.407 175.79C199.435 175.813 199.469 175.831 199.502 175.85C199.569 175.888 199.636 175.926 199.661 175.994C199.813 176.404 199.738 183.787 199.698 187.823C199.686 189.018 199.676 189.92 199.677 190.26L199.692 262.685L199.684 277.124C199.685 277.82 199.669 278.535 199.654 279.257C199.613 281.206 199.57 283.213 199.826 285.07C200.071 286.849 200.904 288.389 201.857 289.881L201.618 289.827C200.108 289.486 198.611 289.149 197.14 288.658C196.546 288.337 195.998 287.937 195.512 287.468C194.225 286.229 193.543 284.702 193.33 282.943C193.015 280.331 193.083 277.538 193.15 274.811C193.176 273.75 193.202 272.698 193.205 271.671L193.234 250.815L193.245 177.355ZM115.715 177.119C115.719 176.877 115.724 176.634 115.728 176.391C117.663 176.763 119.585 177.325 121.498 177.884C122.369 178.139 123.239 178.393 124.107 178.628L142.566 183.711L177.64 193.515C179.592 194.062 181.557 194.571 183.523 195.08C186.281 195.794 189.04 196.509 191.764 197.33L191.751 200.827C189.209 200.433 186.663 199.686 184.159 198.951C183.404 198.729 182.652 198.509 181.906 198.299L166.825 194.097L115.7 179.892C115.682 178.968 115.698 178.044 115.715 177.119ZM135.724 190.783C137.473 190.324 138.81 189.974 139.365 189.82L139.667 189.855L139.81 190.121C139.293 190.698 120.928 195.444 118.479 196.076C118.199 196.037 118.191 196.028 118.085 195.897C118.061 195.867 118.032 195.831 117.994 195.787C118.353 195.336 129.582 192.393 135.724 190.783ZM114.9 250.912C114.831 249.713 114.799 248.705 115.329 247.583C117.421 247.774 119.644 248.482 121.807 249.17C122.899 249.518 123.977 249.861 125.014 250.13C136.359 253.159 147.679 256.275 158.975 259.479L180.857 265.454C182.003 265.76 183.178 266.033 184.359 266.309C186.864 266.892 189.395 267.482 191.736 268.4C191.738 268.579 191.741 268.757 191.744 268.936C191.76 269.937 191.776 270.943 191.644 271.934C188.687 271.362 185.735 270.511 182.81 269.668C181.752 269.363 180.697 269.06 179.647 268.77L158.763 263.025L131.17 255.513C129.892 255.164 128.61 254.82 127.326 254.476C123.163 253.359 118.988 252.24 114.9 250.912ZM246.561 21.5252C261.747 25.6841 276.907 29.9358 292.04 34.2802C292.817 34.495 293.649 34.6962 294.503 34.9027C296.995 35.5051 299.672 36.1522 301.696 37.3114C303.864 38.6769 305.599 40.879 306.161 43.4155C306.632 45.5441 306.851 64.1325 306.188 65.3693C296.479 68.1227 288.887 72.6665 283.825 81.7384C279.823 88.7604 278.792 97.0888 280.96 104.874C283.169 112.718 289.075 119.496 296.127 123.428C298.285 124.633 300.666 125.626 303.034 126.348C303.407 126.462 303.823 126.556 304.248 126.651C305.03 126.827 305.841 127.009 306.463 127.336L306.487 127.384C306.592 127.594 306.676 127.764 306.712 128.008C306.899 129.327 306.875 144.684 306.605 145.572C306.562 145.719 306.529 145.774 306.47 145.875C306.46 145.89 306.45 145.908 306.44 145.926C304.174 146.935 299.652 147.952 295.932 148.788C294.605 149.086 293.38 149.362 292.397 149.605L263.709 156.803L235.174 164.222C231.338 165.249 227.494 166.241 223.641 167.2C223.121 167.331 222.6 167.467 222.078 167.603C220.272 168.073 216.5 169.5 216.5 169.5L211 171L205.277 172.222C203.857 172.538 202.462 172.814 201.016 172.992L200.976 101.336L200.969 81.9574C200.969 81.056 200.989 80.1338 201.009 79.2024C201.065 76.566 201.124 73.8554 200.739 71.3317C200.376 68.9476 199.143 66.6006 197.436 64.9006C197.151 64.6195 196.857 64.3467 196.555 64.0825C194.835 62.8143 193.212 62.0653 191.138 61.5549C187.292 60.6572 183.475 59.5723 179.663 58.4887C177.691 57.9279 175.719 57.3675 173.746 56.8336C165.13 54.5026 156.542 52.0679 147.954 49.6332C137.659 46.7149 127.365 43.7965 117.024 41.0569C123.001 39.3074 129.089 37.819 135.159 36.3348C137.151 35.8479 139.14 35.3614 141.124 34.8664L176.728 25.9161L201.016 19.8201C201.993 19.5742 203.272 19.2276 204.729 18.8331C210.545 17.2584 219.183 14.919 222.631 15.1594C225.047 15.3278 227.551 16.0854 229.957 16.813C230.679 17.0314 231.391 17.2471 232.09 17.4433L246.561 21.5252Z" fill="#080717"/>
<path d="M106.663 47.1683C106.805 46.825 106.958 46.4868 107.123 46.1539C108.37 43.6826 110.494 42.6585 113.01 41.8495C113.308 41.8235 113.604 41.8018 113.904 41.7992C116.299 41.7764 126.989 45.1742 129.901 45.9915L167.199 56.4207L183.871 60.9811C186.56 61.7087 189.34 62.2913 191.982 63.1663C193.506 63.6708 195.139 64.3884 196.281 65.5474C197.848 67.139 199.09 69.268 199.445 71.4911C200.013 75.0386 199.682 78.9486 199.678 82.5474L199.676 102.167L199.67 173.009C197.505 173.535 195.35 174.104 193.207 174.714L193.136 100.328L193.114 84.2429C193.11 80.0278 193.619 74.4954 192.513 70.4987C191.806 67.943 190.071 64.5813 187.681 63.2441C184.562 61.4992 179.464 60.5902 175.882 59.6046L157.472 54.5021C149.076 52.1027 140.664 49.7574 132.237 47.4665C127.954 46.2735 123.631 44.8298 119.286 43.9092C117.438 43.5178 116.058 43.4311 114.232 43.943C113.104 44.4342 112.127 45.0857 111.293 45.9944C109.816 47.6056 109.4 49.3467 109.264 51.4771C109.04 54.9862 109.215 58.5908 109.215 62.1097L109.216 82.2171L109.24 145.009L109.251 217.218L109.275 241.053C109.282 245.644 109.167 250.261 109.385 254.846C109.035 254.002 108.77 253.205 108.687 252.287C108.285 247.834 108.606 243.071 108.606 238.588L108.604 211.664L108.609 103.072L108.606 68.0762C108.607 62.447 108.956 56.1801 108.588 50.6312C108.479 48.9851 107.848 48.2157 106.663 47.1683Z" fill="white"/>
<path d="M44.9109 62.8342C58.7136 59.2207 72.6013 55.8981 86.4378 52.4112C92.0538 50.9959 97.7154 49.6975 103.287 48.1156C103.64 48.0458 104.01 47.9967 104.365 48.0867C107.53 48.8912 106.989 52.1878 106.992 54.7337L107.057 189.871L107.076 231.849C107.082 238.425 106.811 245.099 107.094 251.664C107.144 252.824 107.316 253.787 107.896 254.813C108.595 256.049 109.81 257.059 111.107 257.624C113.654 258.735 116.867 259.297 119.568 260.03L136.61 264.645L191.806 279.63C191.778 283.039 192.105 285.243 194.143 288.03C174.823 282.601 155.463 277.312 136.067 272.164C131.249 270.688 112.791 266.557 109.914 264.327C107.538 262.485 106.832 259.664 106.524 256.826C103.531 258.059 100.245 258.753 97.1152 259.573L83.7848 263.049L44.8828 273.137L44.9109 62.8342Z" fill="white"/>
<path d="M168.878 66.6477C174.384 68.0775 179.853 69.6895 185.353 71.1545C187.311 71.7457 189.28 72.3002 191.259 72.8172L191.266 116.67C189.293 117.585 187.337 118.537 185.399 119.524L183.542 120.59C179.703 119.45 175.815 118.491 171.954 117.428L140.745 108.954L130.166 106.103C128.055 105.537 125.85 105.059 123.801 104.299C122.688 103.886 121.769 103.301 120.971 102.421C119.885 101.224 118.863 99.398 118.584 97.7969C118.257 95.915 118.421 93.8082 118.425 91.9014L118.448 81.8429L118.418 64.9687C118.404 61.3961 118.299 57.7979 118.455 54.2285C125.222 56.2921 132.064 58.0716 138.854 60.0506C139.104 64.2728 140.215 68.3725 142.563 71.9298C145.081 75.7427 148.982 79.0115 153.559 79.8921C156.666 80.4898 159.968 80.0235 162.599 78.2061C166.542 75.4829 168.086 71.1631 168.878 66.6477Z" fill="#0AB69C"/>
<path d="M40.6333 272.104C39.9736 271.395 39.4297 270.683 39.0232 269.802C38.6024 268.888 38.6676 267.736 38.6596 266.745L38.654 130.698L38.6486 89.8077L38.6466 76.5382C38.6468 74.0396 38.55 71.4972 38.6954 69.0046C38.7303 68.4083 38.9018 67.8414 39.1126 67.2857C39.9431 65.0972 41.2045 64.1817 43.2863 63.2502C43.3195 63.2784 43.3577 63.3017 43.3861 63.3349C43.5508 63.5281 43.5679 63.7237 43.5744 63.9657C43.7568 70.8276 43.5431 77.7655 43.5422 84.6339L43.5783 127.703L43.4678 273.526C42.4025 273.173 41.5483 272.751 40.6333 272.104Z" fill="white"/>
<path d="M314.461 126.057C306.686 126.252 298.676 123.658 292.625 118.756C286.626 113.897 282.638 107.061 281.89 99.3371C281.15 91.6952 283.817 83.84 288.71 77.9652C294.587 70.9095 302.958 67.515 311.906 66.6847L312.131 66.6714C320.756 66.1884 329.443 69.4874 335.827 75.2379C341.589 80.4274 345.03 87.4467 345.379 95.2037C345.654 102.788 342.898 110.17 337.719 115.719C331.771 122.17 323.16 125.749 314.461 126.057ZM324.901 83.1479C322.917 85.5763 310.002 101.729 308.951 102.42C308.415 101.286 300.651 94.2562 299.399 93.8434C299.002 93.712 298.587 93.6647 298.197 93.8416C297.903 93.9742 297.726 94.3136 297.661 94.616C297.539 95.1824 297.607 95.6582 297.942 96.1346C298.318 96.6719 298.857 97.0983 299.354 97.5176C301.303 99.2767 303.221 101.069 305.107 102.893C306.141 103.875 307.218 105.079 308.409 105.867C308.69 106.053 308.921 106.112 309.253 106.09C310.624 106.001 311.997 103.945 312.835 102.935C315.817 99.3442 318.695 95.6576 321.623 92.0219C323.362 89.8639 325.449 87.6719 326.855 85.2979C327.113 84.8611 327.196 84.5484 327.223 84.0438C327.027 83.5929 326.906 83.397 326.45 83.1745C325.938 82.9259 325.428 83.0203 324.901 83.1479Z" fill="#0AB69C"/>
<path d="M308.951 102.42C310.002 101.729 322.917 85.5763 324.901 83.1479C325.428 83.0203 325.937 82.926 326.45 83.1745C326.906 83.397 327.027 83.5929 327.223 84.0439C327.196 84.5484 327.113 84.8611 326.855 85.2979C325.449 87.6719 323.361 89.8639 321.623 92.0219C318.695 95.6576 315.817 99.3442 312.835 102.935C311.997 103.945 310.623 106.001 309.253 106.09C308.921 106.112 308.69 106.053 308.409 105.867C307.218 105.079 306.141 103.875 305.107 102.893C303.221 101.069 301.302 99.2767 299.354 97.5176C298.857 97.0983 298.318 96.6719 297.942 96.1346C297.607 95.6582 297.539 95.1824 297.661 94.616C297.726 94.3136 297.903 93.9742 298.196 93.8416C298.587 93.6647 299.002 93.712 299.399 93.8434C300.651 94.2562 308.415 101.286 308.951 102.42Z" fill="white"/>
<path d="M115.849 106.574L115.861 103.538C119.759 104.193 123.609 105.406 127.428 106.422C134.102 108.18 140.764 109.982 147.414 111.826C162.082 115.885 176.853 119.606 191.494 123.754L191.498 127.177C188.525 126.628 185.559 125.679 182.641 124.876C177.031 123.287 171.411 121.735 165.781 120.22L134.67 111.814C128.394 110.104 122.05 108.538 115.849 106.574Z" fill="white"/>
<path d="M117.012 124.591C116.908 124.598 116.716 124.527 116.612 124.499L116.625 124.149C116.809 123.986 137.37 118.652 139.123 118.246C139.444 118.28 139.293 118.215 139.551 118.49C138.201 119.608 120.122 123.816 117.012 124.591Z" fill="white"/>
<path d="M169.07 140.604C174.468 141.638 179.911 143.398 185.236 144.81L191.205 146.472L191.198 191.166C189.285 191.822 187.316 192.422 185.449 193.197C184.682 193.495 183.892 193.745 183.113 194.011C180.334 193.329 177.583 192.42 174.825 191.648C167.492 189.62 160.171 187.552 152.861 185.444L132.961 179.924C130.033 179.09 126.991 178.369 124.121 177.361C123.104 177.004 122.28 176.497 121.515 175.729C120.301 174.511 119.174 172.812 118.813 171.121C118.013 167.377 118.47 159.815 118.479 155.672L118.52 127.22C125.422 128.843 132.223 131.098 139.106 132.843C139.183 137.756 140.98 142.728 143.93 146.648C146.582 150.173 150.362 152.93 154.814 153.515C157.94 153.926 160.983 153.212 163.495 151.276C166.829 148.707 168.515 144.679 169.07 140.604Z" fill="#0AB69C"/>
<path d="M306.653 143.759V153.803C306.653 153.803 306.638 154.61 306.653 155.064C306.854 161.355 306.706 167.697 306.721 173.993L306.709 213.724L306.694 244.359C306.685 249.527 306.869 254.786 306.626 259.942C306.582 260.855 306.422 261.643 306.087 262.496C305.35 264.374 303.97 266.05 302.081 266.847C298.543 268.34 292.703 269.33 288.858 270.309L260.168 277.653L229.872 285.178C225.097 286.416 220.315 287.622 215.525 288.797C212.988 289.425 210.428 290.178 207.858 290.651C206.841 290.838 205.917 290.806 204.946 290.393C203.362 289.72 202.087 287.997 201.512 286.418C201.242 285.677 201.104 284.931 201.042 284.147C200.763 280.591 200.975 276.876 200.984 273.305C200.999 267.714 200.933 262.109 201.043 256.521C200.751 248.1 201.045 239.556 201.027 231.123L201.027 172L278 151.524L295.5 147.5C298.645 146.713 303.748 145.157 306.653 143.759ZM206.934 188.304C206.073 188.682 205.249 189.109 204.848 190.021C204.544 190.714 204.536 191.743 204.859 192.429C205.194 193.143 205.898 193.558 206.624 193.79C208.305 194.326 210.635 194.486 211.601 196.179C212.058 196.98 212.153 198.014 212.206 198.921C212.376 201.808 212.255 204.766 212.251 207.661L212.227 223.64L212.23 239.029C212.232 241.767 212.684 246.014 211.945 248.563C211.805 249.047 211.547 249.504 211.094 249.757C209.234 250.799 205.917 248.252 204.941 251.263C204.707 251.985 204.614 252.855 204.961 253.555C205.448 254.538 206.55 254.943 207.536 255.228C207.801 255.305 208.067 255.378 208.334 255.448C210.312 255.948 212.078 255.844 213.855 254.788C215.561 253.775 217.03 251.833 217.504 249.907C218.507 245.824 218.008 240.589 218.011 236.345L218.018 216.623L218.016 203.775C218.015 201.432 218.16 198.993 217.927 196.665C217.799 195.387 217.287 193.955 216.601 192.871C214.659 189.803 211.005 189.108 207.703 188.416C207.442 188.361 207.199 188.325 206.934 188.304Z" fill="white"/>
<path d="M193.245 177.355L199.267 175.769L199.407 175.79C199.492 175.858 199.624 175.892 199.662 175.994C199.858 176.525 199.675 188.771 199.677 190.26L199.693 262.685L199.685 277.124C199.685 279.697 199.475 282.524 199.826 285.07C200.071 286.849 200.904 288.389 201.857 289.88C200.267 289.522 198.689 289.175 197.14 288.658C196.546 288.337 195.999 287.937 195.513 287.468C194.225 286.229 193.543 284.702 193.33 282.943C192.892 279.314 193.195 275.338 193.205 271.671L193.234 250.815L193.245 177.355Z" fill="white"/>
<path d="M115.7 179.892C115.676 178.726 115.709 177.557 115.727 176.391C118.545 176.933 121.335 177.877 124.107 178.628L142.565 183.711L177.639 193.515C182.333 194.831 187.099 195.924 191.764 197.33L191.751 200.827C188.442 200.315 185.127 199.203 181.905 198.299L166.824 194.097L115.7 179.892Z" fill="white"/>
<path d="M32.4781 188.287C32.7453 188.218 33.0119 188.145 33.2773 188.069C34.2637 187.785 35.3658 187.382 35.854 186.4C36.202 185.7 36.1109 184.829 35.8781 184.107C34.9059 181.095 31.5854 183.637 29.7265 182.592C29.2745 182.338 29.0172 181.882 28.8773 181.397C28.142 178.847 28.6003 174.601 28.6063 171.863L28.632 156.474L28.6307 140.495C28.6317 137.6 28.5146 134.642 28.6887 131.755C28.7433 130.848 28.8393 129.814 29.2976 129.014C30.2665 127.322 32.5971 127.166 34.2785 126.632C35.0045 126.401 35.7089 125.987 36.0451 125.274C36.3689 124.588 36.3633 123.559 36.0602 122.866C35.6606 121.953 34.8363 121.524 33.9767 121.145C33.7114 121.166 33.4679 121.202 33.2067 121.256C29.9043 121.944 26.2492 122.634 24.3029 125.698C23.6147 126.782 23.1007 128.213 22.9709 129.491C22.7351 131.818 22.876 134.258 22.8717 136.6L22.8512 149.448L22.8296 169.17C22.8261 173.414 22.3196 178.649 23.3171 182.734C23.7874 184.66 25.2541 186.604 26.9581 187.619C28.7343 188.678 30.5001 188.784 32.4781 188.287ZM30.526 123.235C31.6584 122.919 33.4301 122.194 34.506 122.892C34.9317 123.168 34.9854 123.459 35.0967 123.925C34.9745 124.481 34.8065 124.904 34.2924 125.211C32.1749 126.476 28.9109 125.555 27.7865 129.14C26.8982 131.97 27.344 138.576 27.3409 141.704L27.336 158.716C27.3372 165.652 27.0273 173.065 27.3912 179.959C27.4402 180.885 27.5256 181.654 27.9954 182.477C28.289 182.991 28.8978 183.777 29.4803 183.957C31.1942 184.485 33.0778 183.381 34.7495 184.408C34.9684 184.732 35.0598 184.835 34.9715 185.252C34.8323 185.91 34.2977 186.397 33.7031 186.639C32.1033 187.289 30.0316 187.62 28.4154 186.913C28.2266 186.831 28.2807 186.858 28.1216 186.745C27.8721 186.655 27.649 186.556 27.4197 186.421C25.7938 185.462 24.7367 183.646 24.3047 181.843C23.7346 179.466 24.0208 176.459 24.0179 173.999L24.0158 161.623L24.0495 141.355C24.0642 137.755 23.9094 134.053 24.1891 130.468C24.3022 129.014 24.4606 127.843 25.2506 126.592C26.4819 124.642 28.3407 123.727 30.526 123.235Z" fill="#080717"/>
<path d="M118.479 196.076C118.135 196.028 118.202 196.025 117.994 195.787C118.455 195.208 136.86 190.514 139.365 189.82L139.668 189.855L139.81 190.121C139.293 190.698 120.928 195.444 118.479 196.076Z" fill="white"/>
<path d="M168.691 211.608C174.259 212.872 179.801 214.57 185.322 216.054L190.991 217.506L190.978 262.051C189.159 262.882 187.25 263.43 185.425 264.214L182.908 265.028C179.424 264.141 175.963 263.079 172.495 262.126L145.82 254.755L132.309 251.064C129.705 250.359 127.006 249.753 124.47 248.84C123.22 248.39 122.122 247.772 121.177 246.828C120.134 245.788 118.966 244.157 118.666 242.694C118.018 239.53 118.425 232.554 118.426 229.09L118.433 198.562C122.121 199.866 125.95 200.81 129.713 201.87C132.952 202.782 136.213 203.843 139.505 204.529C139.603 209.395 141.157 214.12 143.965 218.095C146.374 221.526 149.847 224.226 154.05 224.946C157.061 225.462 160.057 224.852 162.546 223.057C166.331 220.328 167.939 216.043 168.691 211.608Z" fill="#0AB69C"/>
<path d="M114.9 250.912C114.831 249.714 114.799 248.705 115.329 247.583C118.478 247.87 121.925 249.329 125.014 250.13C136.359 253.159 147.68 256.275 158.975 259.479L180.857 265.454C184.436 266.409 188.291 267.05 191.736 268.4C191.75 269.577 191.8 270.766 191.644 271.934C187.617 271.155 183.602 269.86 179.647 268.77L158.763 263.025L131.17 255.513C125.746 254.03 120.249 252.649 114.9 250.912Z" fill="white"/>
</g>
<defs>
<clipPath id="clip0_390_1440">
<rect width="379" height="303" fill="white"/>
</clipPath>
</defs>
</svg>
