<svg width="584" height="53" viewBox="0 0 584 53" fill="none" xmlns="http://www.w3.org/2000/svg">
<path d="M8 0.5H576C580.142 0.5 583.5 3.85786 583.5 8V45C583.5 49.1421 580.142 52.5 576 52.5H8C3.85787 52.5 0.5 49.1421 0.5 45V8C0.5 3.85786 3.85786 0.5 8 0.5Z" stroke="#DC2626"/>
<path d="M26 30.8079V26.4329H25.5625M25.5625 30.8079H26.4375" stroke="#DC2626" stroke-width="1.5" stroke-linecap="round" stroke-linejoin="round"/>
<path d="M26 24.2451V23.8076" stroke="#DC2626" stroke-width="1.5" stroke-linecap="round" stroke-linejoin="round"/>
<circle cx="26" cy="27.3076" r="7.875" stroke="#DC2626" stroke-width="1.5" stroke-linecap="round" stroke-linejoin="round"/>
<path d="M51.623 20.2812V34.5H49.7383V20.2812H51.623ZM60.3828 20.2812L54.2109 28.1035H50.8711L50.5781 26.541H53.0879L58.0488 20.2812H60.3828ZM58.4883 34.5L53.1465 27.8594L54.2012 26.209L60.793 34.5H58.4883ZM68.459 32.6934V27.2539C68.459 26.8372 68.3743 26.4759 68.2051 26.1699C68.0423 25.8574 67.7949 25.6165 67.4629 25.4473C67.1309 25.278 66.7207 25.1934 66.2324 25.1934C65.7767 25.1934 65.3763 25.2715 65.0312 25.4277C64.6927 25.584 64.4258 25.7891 64.2305 26.043C64.0417 26.2969 63.9473 26.5703 63.9473 26.8633H62.1406C62.1406 26.4857 62.2383 26.1113 62.4336 25.7402C62.6289 25.3691 62.9089 25.0339 63.2734 24.7344C63.6445 24.4284 64.0872 24.1875 64.6016 24.0117C65.1224 23.8294 65.7018 23.7383 66.3398 23.7383C67.1081 23.7383 67.7852 23.8685 68.3711 24.1289C68.9635 24.3893 69.4258 24.7832 69.7578 25.3105C70.0964 25.8314 70.2656 26.4857 70.2656 27.2734V32.1953C70.2656 32.5469 70.2949 32.9212 70.3535 33.3184C70.4186 33.7155 70.513 34.0573 70.6367 34.3438V34.5H68.752C68.6608 34.2917 68.5892 34.015 68.5371 33.6699C68.485 33.3184 68.459 32.9928 68.459 32.6934ZM68.7715 28.0938L68.791 29.3633H66.9648C66.4505 29.3633 65.9915 29.4056 65.5879 29.4902C65.1842 29.5684 64.8457 29.6888 64.5723 29.8516C64.2988 30.0143 64.0905 30.2194 63.9473 30.4668C63.804 30.7077 63.7324 30.9909 63.7324 31.3164C63.7324 31.6484 63.8073 31.9512 63.957 32.2246C64.1068 32.498 64.3314 32.7161 64.6309 32.8789C64.9368 33.0352 65.3112 33.1133 65.7539 33.1133C66.3073 33.1133 66.7956 32.9961 67.2188 32.7617C67.6419 32.5273 67.9772 32.2409 68.2246 31.9023C68.4785 31.5638 68.6152 31.235 68.6348 30.916L69.4062 31.7852C69.3607 32.0586 69.237 32.3613 69.0352 32.6934C68.8333 33.0254 68.5632 33.3444 68.2246 33.6504C67.8926 33.9499 67.4954 34.2005 67.0332 34.4023C66.5775 34.5977 66.0632 34.6953 65.4902 34.6953C64.7741 34.6953 64.1458 34.5553 63.6055 34.2754C63.0716 33.9954 62.6549 33.6211 62.3555 33.1523C62.0625 32.6771 61.916 32.1465 61.916 31.5605C61.916 30.9941 62.0267 30.4961 62.248 30.0664C62.4694 29.6302 62.7884 29.2689 63.2051 28.9824C63.6217 28.6895 64.123 28.4681 64.709 28.3184C65.2949 28.1686 65.9492 28.0938 66.6719 28.0938H68.7715ZM76.3105 29.9004L72.3066 23.9336H74.4844L77.2188 28.3086H79.3281L79.0645 29.9004H76.3105ZM77.2969 29.7148L74.2305 34.5H71.9453L76.1543 28.4062L77.2969 29.7148ZM80.2559 23.9336V34.5H78.4492V23.9336H80.2559ZM86.418 23.9336L82.4141 29.9004H79.6602L79.377 28.3086H81.4961L84.2305 23.9336H86.418ZM84.4844 34.5L81.4082 29.7148L82.5703 28.4062L86.7695 34.5H84.4844ZM92.6289 34.6953C91.8932 34.6953 91.2259 34.5716 90.627 34.3242C90.0345 34.0703 89.5234 33.7155 89.0938 33.2598C88.6706 32.804 88.3451 32.2637 88.1172 31.6387C87.8893 31.0137 87.7754 30.3301 87.7754 29.5879V29.1777C87.7754 28.3184 87.9023 27.5534 88.1562 26.8828C88.4102 26.2057 88.7552 25.6328 89.1914 25.1641C89.6276 24.6953 90.1224 24.3405 90.6758 24.0996C91.2292 23.8587 91.8021 23.7383 92.3945 23.7383C93.1497 23.7383 93.8008 23.8685 94.3477 24.1289C94.901 24.3893 95.3535 24.7539 95.7051 25.2227C96.0566 25.6849 96.3171 26.2318 96.4863 26.8633C96.6556 27.4883 96.7402 28.1719 96.7402 28.9141V29.7246H88.8496V28.25H94.9336V28.1133C94.9076 27.6445 94.8099 27.1888 94.6406 26.7461C94.4779 26.3034 94.2174 25.9388 93.8594 25.6523C93.5013 25.3659 93.013 25.2227 92.3945 25.2227C91.9844 25.2227 91.6068 25.3105 91.2617 25.4863C90.9167 25.6556 90.6204 25.9095 90.373 26.248C90.1257 26.5866 89.9336 27 89.7969 27.4883C89.6602 27.9766 89.5918 28.5397 89.5918 29.1777V29.5879C89.5918 30.0892 89.6602 30.5612 89.7969 31.0039C89.9401 31.4401 90.1452 31.8242 90.4121 32.1562C90.6855 32.4883 91.0143 32.7487 91.3984 32.9375C91.7891 33.1263 92.2318 33.2207 92.7266 33.2207C93.3646 33.2207 93.9049 33.0905 94.3477 32.8301C94.7904 32.5697 95.1777 32.2214 95.5098 31.7852L96.6035 32.6543C96.3757 32.9993 96.0859 33.3281 95.7344 33.6406C95.3828 33.9531 94.9499 34.207 94.4355 34.4023C93.9277 34.5977 93.3255 34.6953 92.6289 34.6953ZM103.039 23.9336V34.5H101.223V23.9336H103.039ZM106.584 23.9336V25.3984H97.7461V23.9336H106.584ZM111.809 33.2109C112.238 33.2109 112.635 33.123 113 32.9473C113.365 32.7715 113.664 32.5306 113.898 32.2246C114.133 31.9121 114.266 31.5573 114.299 31.1602H116.018C115.985 31.7852 115.773 32.3678 115.383 32.9082C114.999 33.4421 114.494 33.875 113.869 34.207C113.244 34.5326 112.557 34.6953 111.809 34.6953C111.014 34.6953 110.321 34.5553 109.729 34.2754C109.143 33.9954 108.654 33.6113 108.264 33.123C107.88 32.6348 107.59 32.0749 107.395 31.4434C107.206 30.8053 107.111 30.1315 107.111 29.4219V29.0117C107.111 28.3021 107.206 27.6315 107.395 27C107.59 26.362 107.88 25.7988 108.264 25.3105C108.654 24.8223 109.143 24.4382 109.729 24.1582C110.321 23.8783 111.014 23.7383 111.809 23.7383C112.635 23.7383 113.358 23.9076 113.977 24.2461C114.595 24.5781 115.08 25.0339 115.432 25.6133C115.79 26.1862 115.985 26.8372 116.018 27.5664H114.299C114.266 27.1302 114.143 26.7363 113.928 26.3848C113.719 26.0332 113.433 25.7533 113.068 25.5449C112.71 25.3301 112.29 25.2227 111.809 25.2227C111.255 25.2227 110.79 25.3333 110.412 25.5547C110.041 25.7695 109.745 26.0625 109.523 26.4336C109.309 26.7982 109.152 27.2051 109.055 27.6543C108.964 28.097 108.918 28.5495 108.918 29.0117V29.4219C108.918 29.8841 108.964 30.3398 109.055 30.7891C109.146 31.2383 109.299 31.6452 109.514 32.0098C109.735 32.3743 110.031 32.6673 110.402 32.8887C110.78 33.1035 111.249 33.2109 111.809 33.2109ZM120.188 29.4609H122.141L119.084 34.5H117.131L120.188 29.4609ZM121.701 23.9336H126.115V34.5H124.309V25.3984H121.701C121.187 25.3984 120.767 25.4863 120.441 25.6621C120.116 25.8314 119.878 26.0527 119.729 26.3262C119.579 26.5996 119.504 26.8828 119.504 27.1758C119.504 27.4622 119.572 27.7389 119.709 28.0059C119.846 28.2663 120.061 28.4811 120.354 28.6504C120.646 28.8197 121.024 28.9043 121.486 28.9043H124.797V30.3887H121.486C120.881 30.3887 120.344 30.3073 119.875 30.1445C119.406 29.9818 119.009 29.7572 118.684 29.4707C118.358 29.1777 118.111 28.8359 117.941 28.4453C117.772 28.0482 117.688 27.6185 117.688 27.1562C117.688 26.694 117.775 26.2676 117.951 25.877C118.133 25.4863 118.394 25.1445 118.732 24.8516C119.077 24.5586 119.497 24.334 119.992 24.1777C120.493 24.015 121.063 23.9336 121.701 23.9336ZM130.666 32.3516V33.8066C130.666 34.3991 130.516 35.0241 130.217 35.6816C129.917 36.3457 129.497 36.8991 128.957 37.3418L127.932 36.6289C128.14 36.3424 128.316 36.0495 128.459 35.75C128.602 35.457 128.71 35.151 128.781 34.832C128.859 34.5195 128.898 34.1875 128.898 33.8359V32.3516H130.666ZM142.893 29.8516H139.426L139.406 28.4062H142.238C142.798 28.4062 143.264 28.3509 143.635 28.2402C144.012 28.1296 144.296 27.9635 144.484 27.7422C144.673 27.5208 144.768 27.2474 144.768 26.9219C144.768 26.668 144.712 26.4466 144.602 26.2578C144.497 26.0625 144.338 25.903 144.123 25.7793C143.908 25.6491 143.641 25.5547 143.322 25.4961C143.01 25.431 142.642 25.3984 142.219 25.3984H139.904V34.5H138.098V23.9336H142.219C142.889 23.9336 143.492 23.9922 144.025 24.1094C144.566 24.2266 145.025 24.4056 145.402 24.6465C145.786 24.8809 146.079 25.1803 146.281 25.5449C146.483 25.9095 146.584 26.3392 146.584 26.834C146.584 27.153 146.519 27.4557 146.389 27.7422C146.258 28.0286 146.066 28.2826 145.812 28.5039C145.559 28.7253 145.246 28.9076 144.875 29.0508C144.504 29.1875 144.077 29.2754 143.596 29.3145L142.893 29.8516ZM142.893 34.5H138.771L139.67 33.0352H142.893C143.394 33.0352 143.811 32.9733 144.143 32.8496C144.475 32.7194 144.722 32.5371 144.885 32.3027C145.054 32.0618 145.139 31.7754 145.139 31.4434C145.139 31.1113 145.054 30.8281 144.885 30.5938C144.722 30.3529 144.475 30.1706 144.143 30.0469C143.811 29.9167 143.394 29.8516 142.893 29.8516H140.148L140.168 28.4062H143.596L144.25 28.9531C144.829 28.9987 145.321 29.1419 145.725 29.3828C146.128 29.6237 146.434 29.9297 146.643 30.3008C146.851 30.6654 146.955 31.0625 146.955 31.4922C146.955 31.987 146.861 32.4232 146.672 32.8008C146.49 33.1784 146.223 33.4941 145.871 33.748C145.52 33.9954 145.093 34.1842 144.592 34.3145C144.09 34.4382 143.524 34.5 142.893 34.5ZM150.861 27.5664H154.035C154.888 27.5664 155.607 27.7161 156.193 28.0156C156.779 28.3086 157.222 28.7155 157.521 29.2363C157.827 29.7507 157.98 30.3366 157.98 30.9941C157.98 31.4824 157.896 31.9414 157.727 32.3711C157.557 32.7943 157.303 33.1654 156.965 33.4844C156.633 33.8034 156.219 34.054 155.725 34.2363C155.236 34.4121 154.673 34.5 154.035 34.5H149.543V23.9336H151.35V33.0156H154.035C154.556 33.0156 154.973 32.9212 155.285 32.7324C155.598 32.5436 155.822 32.2995 155.959 32C156.096 31.7005 156.164 31.388 156.164 31.0625C156.164 30.7435 156.096 30.431 155.959 30.125C155.822 29.819 155.598 29.5651 155.285 29.3633C154.973 29.1549 154.556 29.0508 154.035 29.0508H150.861V27.5664ZM161.74 23.9336V34.5H159.934V23.9336H161.74ZM169.387 29.334V29.1094C169.387 28.3477 169.497 27.6413 169.719 26.9902C169.94 26.3327 170.259 25.763 170.676 25.2812C171.092 24.793 171.597 24.4154 172.189 24.1484C172.782 23.875 173.446 23.7383 174.182 23.7383C174.924 23.7383 175.591 23.875 176.184 24.1484C176.783 24.4154 177.29 24.793 177.707 25.2812C178.13 25.763 178.452 26.3327 178.674 26.9902C178.895 27.6413 179.006 28.3477 179.006 29.1094V29.334C179.006 30.0957 178.895 30.8021 178.674 31.4531C178.452 32.1042 178.13 32.6738 177.707 33.1621C177.29 33.6439 176.786 34.0215 176.193 34.2949C175.607 34.5618 174.943 34.6953 174.201 34.6953C173.459 34.6953 172.792 34.5618 172.199 34.2949C171.607 34.0215 171.099 33.6439 170.676 33.1621C170.259 32.6738 169.94 32.1042 169.719 31.4531C169.497 30.8021 169.387 30.0957 169.387 29.334ZM171.193 29.1094V29.334C171.193 29.8613 171.255 30.3594 171.379 30.8281C171.503 31.2904 171.688 31.7005 171.936 32.0586C172.189 32.4167 172.505 32.6999 172.883 32.9082C173.26 33.11 173.7 33.2109 174.201 33.2109C174.696 33.2109 175.129 33.11 175.5 32.9082C175.878 32.6999 176.19 32.4167 176.438 32.0586C176.685 31.7005 176.87 31.2904 176.994 30.8281C177.124 30.3594 177.189 29.8613 177.189 29.334V29.1094C177.189 28.5885 177.124 28.097 176.994 27.6348C176.87 27.166 176.682 26.7526 176.428 26.3945C176.18 26.0299 175.868 25.7435 175.49 25.5352C175.119 25.3268 174.683 25.2227 174.182 25.2227C173.687 25.2227 173.251 25.3268 172.873 25.5352C172.502 25.7435 172.189 26.0299 171.936 26.3945C171.688 26.7526 171.503 27.166 171.379 27.6348C171.255 28.097 171.193 28.5885 171.193 29.1094ZM181.428 23.9336H183.234V33.0156H187.102V23.9336H188.918V33.0156H192.775V23.9336H194.582V34.5H181.428V23.9336ZM199.416 31.6387L204.289 23.9336H206.105V34.5H204.289V26.7949L199.416 34.5H197.619V23.9336H199.416V31.6387ZM215.783 19.334H217.268C217.268 19.972 217.17 20.4798 216.975 20.8574C216.779 21.2285 216.512 21.515 216.174 21.7168C215.842 21.9186 215.464 22.0716 215.041 22.1758C214.624 22.2799 214.191 22.3809 213.742 22.4785C213.182 22.5957 212.661 22.7812 212.18 23.0352C211.704 23.2826 211.294 23.6341 210.949 24.0898C210.611 24.5456 210.36 25.138 210.197 25.8672C210.041 26.5964 209.999 27.498 210.07 28.5723V29.4707H208.586V28.5723C208.586 27.3678 208.7 26.3164 208.928 25.418C209.162 24.5195 209.491 23.7611 209.914 23.1426C210.337 22.5241 210.839 22.0326 211.418 21.668C212.004 21.3034 212.648 21.0527 213.352 20.916C213.859 20.8184 214.296 20.7142 214.66 20.6035C215.025 20.4863 215.301 20.3301 215.49 20.1348C215.686 19.9395 215.783 19.6725 215.783 19.334ZM213.645 24.5391C214.335 24.5391 214.95 24.6595 215.49 24.9004C216.031 25.1413 216.49 25.4766 216.867 25.9062C217.245 26.3359 217.531 26.8438 217.727 27.4297C217.928 28.0091 218.029 28.6406 218.029 29.3242V29.5391C218.029 30.2747 217.922 30.9583 217.707 31.5898C217.499 32.2148 217.189 32.7617 216.779 33.2305C216.376 33.6927 215.881 34.054 215.295 34.3145C214.715 34.5749 214.055 34.7051 213.312 34.7051C212.57 34.7051 211.906 34.5749 211.32 34.3145C210.741 34.054 210.246 33.6927 209.836 33.2305C209.426 32.7617 209.113 32.2148 208.898 31.5898C208.69 30.9583 208.586 30.2747 208.586 29.5391V29.3242C208.586 29.1615 208.615 29.002 208.674 28.8457C208.732 28.6895 208.804 28.5299 208.889 28.3672C208.98 28.2044 209.061 28.0319 209.133 27.8496C209.374 27.2637 209.702 26.7201 210.119 26.2188C210.542 25.7174 211.047 25.3138 211.633 25.0078C212.225 24.6953 212.896 24.5391 213.645 24.5391ZM213.293 26.0137C212.629 26.0137 212.082 26.1667 211.652 26.4727C211.229 26.7786 210.913 27.1855 210.705 27.6934C210.497 28.1947 210.393 28.7383 210.393 29.3242V29.5391C210.393 30.0339 210.451 30.5026 210.568 30.9453C210.686 31.388 210.861 31.7819 211.096 32.127C211.337 32.4655 211.639 32.7324 212.004 32.9277C212.375 33.123 212.811 33.2207 213.312 33.2207C213.814 33.2207 214.247 33.123 214.611 32.9277C214.976 32.7324 215.275 32.4655 215.51 32.127C215.744 31.7819 215.92 31.388 216.037 30.9453C216.154 30.5026 216.213 30.0339 216.213 29.5391V29.3242C216.213 28.8815 216.154 28.4616 216.037 28.0645C215.92 27.6673 215.741 27.3158 215.5 27.0098C215.266 26.7038 214.963 26.4629 214.592 26.2871C214.227 26.1048 213.794 26.0137 213.293 26.0137ZM227.141 23.9336V25.4277H222.033V23.9336H227.141ZM228.732 23.9336V34.5H226.926V23.9336H228.732ZM221.594 23.9336H223.41L223.137 29.0312C223.091 29.819 223.016 30.5156 222.912 31.1211C222.814 31.7201 222.678 32.2344 222.502 32.6641C222.333 33.0938 222.118 33.4453 221.857 33.7188C221.604 33.9857 221.298 34.1842 220.939 34.3145C220.581 34.4382 220.168 34.5 219.699 34.5H219.133V32.9082L219.523 32.8789C219.803 32.8594 220.041 32.7943 220.236 32.6836C220.438 32.5729 220.607 32.4102 220.744 32.1953C220.881 31.974 220.992 31.6908 221.076 31.3457C221.167 31.0007 221.236 30.5905 221.281 30.1152C221.333 29.64 221.372 29.0866 221.398 28.4551L221.594 23.9336ZM233.596 31.6387L238.469 23.9336H240.285V34.5H238.469V26.7949L233.596 34.5H231.799V23.9336H233.596V31.6387ZM247.414 33.2109C247.844 33.2109 248.241 33.123 248.605 32.9473C248.97 32.7715 249.27 32.5306 249.504 32.2246C249.738 31.9121 249.872 31.5573 249.904 31.1602H251.623C251.59 31.7852 251.379 32.3678 250.988 32.9082C250.604 33.4421 250.1 33.875 249.475 34.207C248.85 34.5326 248.163 34.6953 247.414 34.6953C246.62 34.6953 245.926 34.5553 245.334 34.2754C244.748 33.9954 244.26 33.6113 243.869 33.123C243.485 32.6348 243.195 32.0749 243 31.4434C242.811 30.8053 242.717 30.1315 242.717 29.4219V29.0117C242.717 28.3021 242.811 27.6315 243 27C243.195 26.362 243.485 25.7988 243.869 25.3105C244.26 24.8223 244.748 24.4382 245.334 24.1582C245.926 23.8783 246.62 23.7383 247.414 23.7383C248.241 23.7383 248.964 23.9076 249.582 24.2461C250.201 24.5781 250.686 25.0339 251.037 25.6133C251.395 26.1862 251.59 26.8372 251.623 27.5664H249.904C249.872 27.1302 249.748 26.7363 249.533 26.3848C249.325 26.0332 249.038 25.7533 248.674 25.5449C248.316 25.3301 247.896 25.2227 247.414 25.2227C246.861 25.2227 246.395 25.3333 246.018 25.5547C245.646 25.7695 245.35 26.0625 245.129 26.4336C244.914 26.7982 244.758 27.2051 244.66 27.6543C244.569 28.097 244.523 28.5495 244.523 29.0117V29.4219C244.523 29.8841 244.569 30.3398 244.66 30.7891C244.751 31.2383 244.904 31.6452 245.119 32.0098C245.34 32.3743 245.637 32.6673 246.008 32.8887C246.385 33.1035 246.854 33.2109 247.414 33.2109ZM255.139 27.5664H258.312C259.165 27.5664 259.885 27.7161 260.471 28.0156C261.057 28.3086 261.499 28.7155 261.799 29.2363C262.105 29.7507 262.258 30.3366 262.258 30.9941C262.258 31.4824 262.173 31.9414 262.004 32.3711C261.835 32.7943 261.581 33.1654 261.242 33.4844C260.91 33.8034 260.497 34.054 260.002 34.2363C259.514 34.4121 258.951 34.5 258.312 34.5H253.82V23.9336H255.627V33.0156H258.312C258.833 33.0156 259.25 32.9212 259.562 32.7324C259.875 32.5436 260.1 32.2995 260.236 32C260.373 31.7005 260.441 31.388 260.441 31.0625C260.441 30.7435 260.373 30.431 260.236 30.125C260.1 29.819 259.875 29.5651 259.562 29.3633C259.25 29.1549 258.833 29.0508 258.312 29.0508H255.139V27.5664ZM276.516 23.9336V25.4277H271.174V23.9336H276.516ZM271.438 23.9336V34.5H269.631V23.9336H271.438ZM278.117 23.9336V34.5H276.301V23.9336H278.117ZM282.824 25.9648V38.5625H281.008V23.9336H282.668L282.824 25.9648ZM289.943 29.1289V29.334C289.943 30.1022 289.852 30.8151 289.67 31.4727C289.488 32.1237 289.221 32.6901 288.869 33.1719C288.524 33.6536 288.098 34.028 287.59 34.2949C287.082 34.5618 286.499 34.6953 285.842 34.6953C285.171 34.6953 284.579 34.5846 284.064 34.3633C283.55 34.1419 283.114 33.8197 282.756 33.3965C282.398 32.9733 282.111 32.4655 281.896 31.873C281.688 31.2806 281.545 30.6133 281.467 29.8711V28.7773C281.545 27.9961 281.691 27.2962 281.906 26.6777C282.121 26.0592 282.404 25.5319 282.756 25.0957C283.114 24.653 283.547 24.3177 284.055 24.0898C284.562 23.8555 285.148 23.7383 285.812 23.7383C286.477 23.7383 287.066 23.8685 287.58 24.1289C288.094 24.3828 288.527 24.7474 288.879 25.2227C289.23 25.6979 289.494 26.2676 289.67 26.9316C289.852 27.5892 289.943 28.3216 289.943 29.1289ZM288.127 29.334V29.1289C288.127 28.6016 288.072 28.1068 287.961 27.6445C287.85 27.1758 287.678 26.7656 287.443 26.4141C287.215 26.056 286.923 25.776 286.564 25.5742C286.206 25.3659 285.78 25.2617 285.285 25.2617C284.829 25.2617 284.432 25.3398 284.094 25.4961C283.762 25.6523 283.479 25.8639 283.244 26.1309C283.01 26.3913 282.818 26.6908 282.668 27.0293C282.525 27.3613 282.417 27.7064 282.346 28.0645V30.5938C282.476 31.0495 282.658 31.4792 282.893 31.8828C283.127 32.2799 283.439 32.6022 283.83 32.8496C284.221 33.0905 284.712 33.2109 285.305 33.2109C285.793 33.2109 286.213 33.11 286.564 32.9082C286.923 32.6999 287.215 32.4167 287.443 32.0586C287.678 31.7005 287.85 31.2904 287.961 30.8281C288.072 30.3594 288.127 29.8613 288.127 29.334ZM294.201 31.6387L299.074 23.9336H300.891V34.5H299.074V26.7949L294.201 34.5H292.404V23.9336H294.201V31.6387ZM313.713 29.8516H310.246L310.227 28.4062H313.059C313.618 28.4062 314.084 28.3509 314.455 28.2402C314.833 28.1296 315.116 27.9635 315.305 27.7422C315.493 27.5208 315.588 27.2474 315.588 26.9219C315.588 26.668 315.533 26.4466 315.422 26.2578C315.318 26.0625 315.158 25.903 314.943 25.7793C314.729 25.6491 314.462 25.5547 314.143 25.4961C313.83 25.431 313.462 25.3984 313.039 25.3984H310.725V34.5H308.918V23.9336H313.039C313.71 23.9336 314.312 23.9922 314.846 24.1094C315.386 24.2266 315.845 24.4056 316.223 24.6465C316.607 24.8809 316.9 25.1803 317.102 25.5449C317.303 25.9095 317.404 26.3392 317.404 26.834C317.404 27.153 317.339 27.4557 317.209 27.7422C317.079 28.0286 316.887 28.2826 316.633 28.5039C316.379 28.7253 316.066 28.9076 315.695 29.0508C315.324 29.1875 314.898 29.2754 314.416 29.3145L313.713 29.8516ZM313.713 34.5H309.592L310.49 33.0352H313.713C314.214 33.0352 314.631 32.9733 314.963 32.8496C315.295 32.7194 315.542 32.5371 315.705 32.3027C315.874 32.0618 315.959 31.7754 315.959 31.4434C315.959 31.1113 315.874 30.8281 315.705 30.5938C315.542 30.3529 315.295 30.1706 314.963 30.0469C314.631 29.9167 314.214 29.8516 313.713 29.8516H310.969L310.988 28.4062H314.416L315.07 28.9531C315.65 28.9987 316.141 29.1419 316.545 29.3828C316.949 29.6237 317.255 29.9297 317.463 30.3008C317.671 30.6654 317.775 31.0625 317.775 31.4922C317.775 31.987 317.681 32.4232 317.492 32.8008C317.31 33.1784 317.043 33.4941 316.691 33.748C316.34 33.9954 315.913 34.1842 315.412 34.3145C314.911 34.4382 314.344 34.5 313.713 34.5ZM325.158 29.8516H321.691L321.672 28.4062H324.504C325.064 28.4062 325.529 28.3509 325.9 28.2402C326.278 28.1296 326.561 27.9635 326.75 27.7422C326.939 27.5208 327.033 27.2474 327.033 26.9219C327.033 26.668 326.978 26.4466 326.867 26.2578C326.763 26.0625 326.604 25.903 326.389 25.7793C326.174 25.6491 325.907 25.5547 325.588 25.4961C325.275 25.431 324.908 25.3984 324.484 25.3984H322.17V34.5H320.363V23.9336H324.484C325.155 23.9336 325.757 23.9922 326.291 24.1094C326.831 24.2266 327.29 24.4056 327.668 24.6465C328.052 24.8809 328.345 25.1803 328.547 25.5449C328.749 25.9095 328.85 26.3392 328.85 26.834C328.85 27.153 328.785 27.4557 328.654 27.7422C328.524 28.0286 328.332 28.2826 328.078 28.5039C327.824 28.7253 327.512 28.9076 327.141 29.0508C326.77 29.1875 326.343 29.2754 325.861 29.3145L325.158 29.8516ZM325.158 34.5H321.037L321.936 33.0352H325.158C325.66 33.0352 326.076 32.9733 326.408 32.8496C326.74 32.7194 326.988 32.5371 327.15 32.3027C327.32 32.0618 327.404 31.7754 327.404 31.4434C327.404 31.1113 327.32 30.8281 327.15 30.5938C326.988 30.3529 326.74 30.1706 326.408 30.0469C326.076 29.9167 325.66 29.8516 325.158 29.8516H322.414L322.434 28.4062H325.861L326.516 28.9531C327.095 28.9987 327.587 29.1419 327.99 29.3828C328.394 29.6237 328.7 29.9297 328.908 30.3008C329.117 30.6654 329.221 31.0625 329.221 31.4922C329.221 31.987 329.126 32.4232 328.938 32.8008C328.755 33.1784 328.488 33.4941 328.137 33.748C327.785 33.9954 327.359 34.1842 326.857 34.3145C326.356 34.4382 325.79 34.5 325.158 34.5ZM331.164 29.334V29.1094C331.164 28.3477 331.275 27.6413 331.496 26.9902C331.717 26.3327 332.036 25.763 332.453 25.2812C332.87 24.793 333.374 24.4154 333.967 24.1484C334.559 23.875 335.223 23.7383 335.959 23.7383C336.701 23.7383 337.368 23.875 337.961 24.1484C338.56 24.4154 339.068 24.793 339.484 25.2812C339.908 25.763 340.23 26.3327 340.451 26.9902C340.673 27.6413 340.783 28.3477 340.783 29.1094V29.334C340.783 30.0957 340.673 30.8021 340.451 31.4531C340.23 32.1042 339.908 32.6738 339.484 33.1621C339.068 33.6439 338.563 34.0215 337.971 34.2949C337.385 34.5618 336.721 34.6953 335.979 34.6953C335.236 34.6953 334.569 34.5618 333.977 34.2949C333.384 34.0215 332.876 33.6439 332.453 33.1621C332.036 32.6738 331.717 32.1042 331.496 31.4531C331.275 30.8021 331.164 30.0957 331.164 29.334ZM332.971 29.1094V29.334C332.971 29.8613 333.033 30.3594 333.156 30.8281C333.28 31.2904 333.465 31.7005 333.713 32.0586C333.967 32.4167 334.283 32.6999 334.66 32.9082C335.038 33.11 335.477 33.2109 335.979 33.2109C336.473 33.2109 336.906 33.11 337.277 32.9082C337.655 32.6999 337.967 32.4167 338.215 32.0586C338.462 31.7005 338.648 31.2904 338.771 30.8281C338.902 30.3594 338.967 29.8613 338.967 29.334V29.1094C338.967 28.5885 338.902 28.097 338.771 27.6348C338.648 27.166 338.459 26.7526 338.205 26.3945C337.958 26.0299 337.645 25.7435 337.268 25.5352C336.896 25.3268 336.46 25.2227 335.959 25.2227C335.464 25.2227 335.028 25.3268 334.65 25.5352C334.279 25.7435 333.967 26.0299 333.713 26.3945C333.465 26.7526 333.28 27.166 333.156 27.6348C333.033 28.097 332.971 28.5885 332.971 29.1094ZM344.25 23.9336H346.057L345.9 27.8887C345.861 28.8913 345.747 29.7572 345.559 30.4863C345.37 31.2155 345.129 31.8372 344.836 32.3516C344.543 32.8594 344.214 33.2858 343.85 33.6309C343.492 33.9759 343.12 34.2656 342.736 34.5H341.838L341.887 33.0254L342.258 33.0156C342.473 32.7617 342.681 32.5013 342.883 32.2344C343.085 31.9609 343.27 31.6387 343.439 31.2676C343.609 30.89 343.749 30.431 343.859 29.8906C343.977 29.3438 344.051 28.6764 344.084 27.8887L344.25 23.9336ZM344.699 23.9336H351.057V34.5H349.25V25.6035H344.699V23.9336ZM341.428 33.0156H352.414V37.6152H350.607V34.5H343.234V37.6152H341.418L341.428 33.0156ZM358.801 34.6953C358.065 34.6953 357.398 34.5716 356.799 34.3242C356.206 34.0703 355.695 33.7155 355.266 33.2598C354.842 32.804 354.517 32.2637 354.289 31.6387C354.061 31.0137 353.947 30.3301 353.947 29.5879V29.1777C353.947 28.3184 354.074 27.5534 354.328 26.8828C354.582 26.2057 354.927 25.6328 355.363 25.1641C355.799 24.6953 356.294 24.3405 356.848 24.0996C357.401 23.8587 357.974 23.7383 358.566 23.7383C359.322 23.7383 359.973 23.8685 360.52 24.1289C361.073 24.3893 361.525 24.7539 361.877 25.2227C362.229 25.6849 362.489 26.2318 362.658 26.8633C362.827 27.4883 362.912 28.1719 362.912 28.9141V29.7246H355.021V28.25H361.105V28.1133C361.079 27.6445 360.982 27.1888 360.812 26.7461C360.65 26.3034 360.389 25.9388 360.031 25.6523C359.673 25.3659 359.185 25.2227 358.566 25.2227C358.156 25.2227 357.779 25.3105 357.434 25.4863C357.089 25.6556 356.792 25.9095 356.545 26.248C356.298 26.5866 356.105 27 355.969 27.4883C355.832 27.9766 355.764 28.5397 355.764 29.1777V29.5879C355.764 30.0892 355.832 30.5612 355.969 31.0039C356.112 31.4401 356.317 31.8242 356.584 32.1562C356.857 32.4883 357.186 32.7487 357.57 32.9375C357.961 33.1263 358.404 33.2207 358.898 33.2207C359.536 33.2207 360.077 33.0905 360.52 32.8301C360.962 32.5697 361.35 32.2214 361.682 31.7852L362.775 32.6543C362.548 32.9993 362.258 33.3281 361.906 33.6406C361.555 33.9531 361.122 34.207 360.607 34.4023C360.1 34.5977 359.497 34.6953 358.801 34.6953ZM365.051 33.543C365.051 33.237 365.145 32.9798 365.334 32.7715C365.529 32.5566 365.809 32.4492 366.174 32.4492C366.538 32.4492 366.815 32.5566 367.004 32.7715C367.199 32.9798 367.297 33.237 367.297 33.543C367.297 33.8424 367.199 34.0964 367.004 34.3047C366.815 34.513 366.538 34.6172 366.174 34.6172C365.809 34.6172 365.529 34.513 365.334 34.3047C365.145 34.0964 365.051 33.8424 365.051 33.543ZM386.389 20.2812V34.5H384.514V21.8242H377.502V34.5H375.617V20.2812H386.389ZM389.055 29.334V29.1094C389.055 28.3477 389.165 27.6413 389.387 26.9902C389.608 26.3327 389.927 25.763 390.344 25.2812C390.76 24.793 391.265 24.4154 391.857 24.1484C392.45 23.875 393.114 23.7383 393.85 23.7383C394.592 23.7383 395.259 23.875 395.852 24.1484C396.451 24.4154 396.958 24.793 397.375 25.2812C397.798 25.763 398.12 26.3327 398.342 26.9902C398.563 27.6413 398.674 28.3477 398.674 29.1094V29.334C398.674 30.0957 398.563 30.8021 398.342 31.4531C398.12 32.1042 397.798 32.6738 397.375 33.1621C396.958 33.6439 396.454 34.0215 395.861 34.2949C395.275 34.5618 394.611 34.6953 393.869 34.6953C393.127 34.6953 392.46 34.5618 391.867 34.2949C391.275 34.0215 390.767 33.6439 390.344 33.1621C389.927 32.6738 389.608 32.1042 389.387 31.4531C389.165 30.8021 389.055 30.0957 389.055 29.334ZM390.861 29.1094V29.334C390.861 29.8613 390.923 30.3594 391.047 30.8281C391.171 31.2904 391.356 31.7005 391.604 32.0586C391.857 32.4167 392.173 32.6999 392.551 32.9082C392.928 33.11 393.368 33.2109 393.869 33.2109C394.364 33.2109 394.797 33.11 395.168 32.9082C395.546 32.6999 395.858 32.4167 396.105 32.0586C396.353 31.7005 396.538 31.2904 396.662 30.8281C396.792 30.3594 396.857 29.8613 396.857 29.334V29.1094C396.857 28.5885 396.792 28.097 396.662 27.6348C396.538 27.166 396.35 26.7526 396.096 26.3945C395.848 26.0299 395.536 25.7435 395.158 25.5352C394.787 25.3268 394.351 25.2227 393.85 25.2227C393.355 25.2227 392.919 25.3268 392.541 25.5352C392.17 25.7435 391.857 26.0299 391.604 26.3945C391.356 26.7526 391.171 27.166 391.047 27.6348C390.923 28.097 390.861 28.5885 390.861 29.1094ZM407.98 23.9336V25.4277H402.639V23.9336H407.98ZM402.902 23.9336V34.5H401.096V23.9336H402.902ZM409.582 23.9336V34.5H407.766V23.9336H409.582ZM414.289 25.9648V38.5625H412.473V23.9336H414.133L414.289 25.9648ZM421.408 29.1289V29.334C421.408 30.1022 421.317 30.8151 421.135 31.4727C420.952 32.1237 420.686 32.6901 420.334 33.1719C419.989 33.6536 419.562 34.028 419.055 34.2949C418.547 34.5618 417.964 34.6953 417.307 34.6953C416.636 34.6953 416.044 34.5846 415.529 34.3633C415.015 34.1419 414.579 33.8197 414.221 33.3965C413.863 32.9733 413.576 32.4655 413.361 31.873C413.153 31.2806 413.01 30.6133 412.932 29.8711V28.7773C413.01 27.9961 413.156 27.2962 413.371 26.6777C413.586 26.0592 413.869 25.5319 414.221 25.0957C414.579 24.653 415.012 24.3177 415.52 24.0898C416.027 23.8555 416.613 23.7383 417.277 23.7383C417.941 23.7383 418.531 23.8685 419.045 24.1289C419.559 24.3828 419.992 24.7474 420.344 25.2227C420.695 25.6979 420.959 26.2676 421.135 26.9316C421.317 27.5892 421.408 28.3216 421.408 29.1289ZM419.592 29.334V29.1289C419.592 28.6016 419.536 28.1068 419.426 27.6445C419.315 27.1758 419.143 26.7656 418.908 26.4141C418.68 26.056 418.387 25.776 418.029 25.5742C417.671 25.3659 417.245 25.2617 416.75 25.2617C416.294 25.2617 415.897 25.3398 415.559 25.4961C415.227 25.6523 414.943 25.8639 414.709 26.1309C414.475 26.3913 414.283 26.6908 414.133 27.0293C413.99 27.3613 413.882 27.7064 413.811 28.0645V30.5938C413.941 31.0495 414.123 31.4792 414.357 31.8828C414.592 32.2799 414.904 32.6022 415.295 32.8496C415.686 33.0905 416.177 33.2109 416.77 33.2109C417.258 33.2109 417.678 33.11 418.029 32.9082C418.387 32.6999 418.68 32.4167 418.908 32.0586C419.143 31.7005 419.315 31.2904 419.426 30.8281C419.536 30.3594 419.592 29.8613 419.592 29.334ZM423.234 29.334V29.1094C423.234 28.3477 423.345 27.6413 423.566 26.9902C423.788 26.3327 424.107 25.763 424.523 25.2812C424.94 24.793 425.445 24.4154 426.037 24.1484C426.63 23.875 427.294 23.7383 428.029 23.7383C428.771 23.7383 429.439 23.875 430.031 24.1484C430.63 24.4154 431.138 24.793 431.555 25.2812C431.978 25.763 432.3 26.3327 432.521 26.9902C432.743 27.6413 432.854 28.3477 432.854 29.1094V29.334C432.854 30.0957 432.743 30.8021 432.521 31.4531C432.3 32.1042 431.978 32.6738 431.555 33.1621C431.138 33.6439 430.633 34.0215 430.041 34.2949C429.455 34.5618 428.791 34.6953 428.049 34.6953C427.307 34.6953 426.639 34.5618 426.047 34.2949C425.454 34.0215 424.947 33.6439 424.523 33.1621C424.107 32.6738 423.788 32.1042 423.566 31.4531C423.345 30.8021 423.234 30.0957 423.234 29.334ZM425.041 29.1094V29.334C425.041 29.8613 425.103 30.3594 425.227 30.8281C425.35 31.2904 425.536 31.7005 425.783 32.0586C426.037 32.4167 426.353 32.6999 426.73 32.9082C427.108 33.11 427.548 33.2109 428.049 33.2109C428.544 33.2109 428.977 33.11 429.348 32.9082C429.725 32.6999 430.038 32.4167 430.285 32.0586C430.533 31.7005 430.718 31.2904 430.842 30.8281C430.972 30.3594 431.037 29.8613 431.037 29.334V29.1094C431.037 28.5885 430.972 28.097 430.842 27.6348C430.718 27.166 430.529 26.7526 430.275 26.3945C430.028 26.0299 429.715 25.7435 429.338 25.5352C428.967 25.3268 428.531 25.2227 428.029 25.2227C427.535 25.2227 427.098 25.3268 426.721 25.5352C426.35 25.7435 426.037 26.0299 425.783 26.3945C425.536 26.7526 425.35 27.166 425.227 27.6348C425.103 28.097 425.041 28.5885 425.041 29.1094ZM441.896 19.334H443.381C443.381 19.972 443.283 20.4798 443.088 20.8574C442.893 21.2285 442.626 21.515 442.287 21.7168C441.955 21.9186 441.577 22.0716 441.154 22.1758C440.738 22.2799 440.305 22.3809 439.855 22.4785C439.296 22.5957 438.775 22.7812 438.293 23.0352C437.818 23.2826 437.408 23.6341 437.062 24.0898C436.724 24.5456 436.473 25.138 436.311 25.8672C436.154 26.5964 436.112 27.498 436.184 28.5723V29.4707H434.699V28.5723C434.699 27.3678 434.813 26.3164 435.041 25.418C435.275 24.5195 435.604 23.7611 436.027 23.1426C436.451 22.5241 436.952 22.0326 437.531 21.668C438.117 21.3034 438.762 21.0527 439.465 20.916C439.973 20.8184 440.409 20.7142 440.773 20.6035C441.138 20.4863 441.415 20.3301 441.604 20.1348C441.799 19.9395 441.896 19.6725 441.896 19.334ZM439.758 24.5391C440.448 24.5391 441.063 24.6595 441.604 24.9004C442.144 25.1413 442.603 25.4766 442.98 25.9062C443.358 26.3359 443.645 26.8438 443.84 27.4297C444.042 28.0091 444.143 28.6406 444.143 29.3242V29.5391C444.143 30.2747 444.035 30.9583 443.82 31.5898C443.612 32.2148 443.303 32.7617 442.893 33.2305C442.489 33.6927 441.994 34.054 441.408 34.3145C440.829 34.5749 440.168 34.7051 439.426 34.7051C438.684 34.7051 438.02 34.5749 437.434 34.3145C436.854 34.054 436.359 33.6927 435.949 33.2305C435.539 32.7617 435.227 32.2148 435.012 31.5898C434.803 30.9583 434.699 30.2747 434.699 29.5391V29.3242C434.699 29.1615 434.729 29.002 434.787 28.8457C434.846 28.6895 434.917 28.5299 435.002 28.3672C435.093 28.2044 435.174 28.0319 435.246 27.8496C435.487 27.2637 435.816 26.7201 436.232 26.2188C436.656 25.7174 437.16 25.3138 437.746 25.0078C438.339 24.6953 439.009 24.5391 439.758 24.5391ZM439.406 26.0137C438.742 26.0137 438.195 26.1667 437.766 26.4727C437.342 26.7786 437.027 27.1855 436.818 27.6934C436.61 28.1947 436.506 28.7383 436.506 29.3242V29.5391C436.506 30.0339 436.564 30.5026 436.682 30.9453C436.799 31.388 436.975 31.7819 437.209 32.127C437.45 32.4655 437.753 32.7324 438.117 32.9277C438.488 33.123 438.924 33.2207 439.426 33.2207C439.927 33.2207 440.36 33.123 440.725 32.9277C441.089 32.7324 441.389 32.4655 441.623 32.127C441.857 31.7819 442.033 31.388 442.15 30.9453C442.268 30.5026 442.326 30.0339 442.326 29.5391V29.3242C442.326 28.8815 442.268 28.4616 442.15 28.0645C442.033 27.6673 441.854 27.3158 441.613 27.0098C441.379 26.7038 441.076 26.4629 440.705 26.2871C440.34 26.1048 439.908 26.0137 439.406 26.0137ZM449.162 33.4062L452.102 23.9336H454.035L449.797 36.1309C449.699 36.3913 449.569 36.6712 449.406 36.9707C449.25 37.2767 449.048 37.5664 448.801 37.8398C448.553 38.1133 448.254 38.3346 447.902 38.5039C447.557 38.6797 447.144 38.7676 446.662 38.7676C446.519 38.7676 446.337 38.748 446.115 38.709C445.894 38.6699 445.738 38.6374 445.646 38.6113L445.637 37.1465C445.689 37.153 445.77 37.1595 445.881 37.166C445.998 37.179 446.079 37.1855 446.125 37.1855C446.535 37.1855 446.883 37.1302 447.17 37.0195C447.456 36.9154 447.697 36.7363 447.893 36.4824C448.094 36.235 448.267 35.8932 448.41 35.457L449.162 33.4062ZM447.004 23.9336L449.748 32.1367L450.217 34.041L448.918 34.7051L445.031 23.9336H447.004ZM457.619 31.6387L462.492 23.9336H464.309V34.5H462.492V26.7949L457.619 34.5H455.822V23.9336H457.619V31.6387ZM461.506 20.1055H462.971C462.971 20.6133 462.854 21.0658 462.619 21.4629C462.385 21.8535 462.049 22.1595 461.613 22.3809C461.177 22.6022 460.66 22.7129 460.061 22.7129C459.156 22.7129 458.439 22.472 457.912 21.9902C457.391 21.502 457.131 20.8737 457.131 20.1055H458.596C458.596 20.4896 458.706 20.8281 458.928 21.1211C459.149 21.4141 459.527 21.5605 460.061 21.5605C460.581 21.5605 460.952 21.4141 461.174 21.1211C461.395 20.8281 461.506 20.4896 461.506 20.1055ZM471.516 23.9336V34.5H469.699V23.9336H471.516ZM475.061 23.9336V25.3984H466.223V23.9336H475.061ZM480.441 34.6953C479.706 34.6953 479.038 34.5716 478.439 34.3242C477.847 34.0703 477.336 33.7155 476.906 33.2598C476.483 32.804 476.158 32.2637 475.93 31.6387C475.702 31.0137 475.588 30.3301 475.588 29.5879V29.1777C475.588 28.3184 475.715 27.5534 475.969 26.8828C476.223 26.2057 476.568 25.6328 477.004 25.1641C477.44 24.6953 477.935 24.3405 478.488 24.0996C479.042 23.8587 479.615 23.7383 480.207 23.7383C480.962 23.7383 481.613 23.8685 482.16 24.1289C482.714 24.3893 483.166 24.7539 483.518 25.2227C483.869 25.6849 484.13 26.2318 484.299 26.8633C484.468 27.4883 484.553 28.1719 484.553 28.9141V29.7246H476.662V28.25H482.746V28.1133C482.72 27.6445 482.622 27.1888 482.453 26.7461C482.29 26.3034 482.03 25.9388 481.672 25.6523C481.314 25.3659 480.826 25.2227 480.207 25.2227C479.797 25.2227 479.419 25.3105 479.074 25.4863C478.729 25.6556 478.433 25.9095 478.186 26.248C477.938 26.5866 477.746 27 477.609 27.4883C477.473 27.9766 477.404 28.5397 477.404 29.1777V29.5879C477.404 30.0892 477.473 30.5612 477.609 31.0039C477.753 31.4401 477.958 31.8242 478.225 32.1562C478.498 32.4883 478.827 32.7487 479.211 32.9375C479.602 33.1263 480.044 33.2207 480.539 33.2207C481.177 33.2207 481.717 33.0905 482.16 32.8301C482.603 32.5697 482.99 32.2214 483.322 31.7852L484.416 32.6543C484.188 32.9993 483.898 33.3281 483.547 33.6406C483.195 33.9531 482.762 34.207 482.248 34.4023C481.74 34.5977 481.138 34.6953 480.441 34.6953ZM496.008 34.6953C495.272 34.6953 494.605 34.5716 494.006 34.3242C493.413 34.0703 492.902 33.7155 492.473 33.2598C492.049 32.804 491.724 32.2637 491.496 31.6387C491.268 31.0137 491.154 30.3301 491.154 29.5879V29.1777C491.154 28.3184 491.281 27.5534 491.535 26.8828C491.789 26.2057 492.134 25.6328 492.57 25.1641C493.007 24.6953 493.501 24.3405 494.055 24.0996C494.608 23.8587 495.181 23.7383 495.773 23.7383C496.529 23.7383 497.18 23.8685 497.727 24.1289C498.28 24.3893 498.732 24.7539 499.084 25.2227C499.436 25.6849 499.696 26.2318 499.865 26.8633C500.035 27.4883 500.119 28.1719 500.119 28.9141V29.7246H492.229V28.25H498.312V28.1133C498.286 27.6445 498.189 27.1888 498.02 26.7461C497.857 26.3034 497.596 25.9388 497.238 25.6523C496.88 25.3659 496.392 25.2227 495.773 25.2227C495.363 25.2227 494.986 25.3105 494.641 25.4863C494.296 25.6556 493.999 25.9095 493.752 26.248C493.505 26.5866 493.312 27 493.176 27.4883C493.039 27.9766 492.971 28.5397 492.971 29.1777V29.5879C492.971 30.0892 493.039 30.5612 493.176 31.0039C493.319 31.4401 493.524 31.8242 493.791 32.1562C494.064 32.4883 494.393 32.7487 494.777 32.9375C495.168 33.1263 495.611 33.2207 496.105 33.2207C496.743 33.2207 497.284 33.0905 497.727 32.8301C498.169 32.5697 498.557 32.2214 498.889 31.7852L499.982 32.6543C499.755 32.9993 499.465 33.3281 499.113 33.6406C498.762 33.9531 498.329 34.207 497.814 34.4023C497.307 34.5977 496.704 34.6953 496.008 34.6953ZM516.916 33.0156L516.74 37.6348H515.129V34.5H513.752V33.0156H516.916ZM502.277 23.9336H504.084V33.0156H507.951V23.9336H509.768V33.0156H513.625V23.9336H515.432V34.5H502.277V23.9336ZM523.293 34.6953C522.557 34.6953 521.89 34.5716 521.291 34.3242C520.699 34.0703 520.188 33.7155 519.758 33.2598C519.335 32.804 519.009 32.2637 518.781 31.6387C518.553 31.0137 518.439 30.3301 518.439 29.5879V29.1777C518.439 28.3184 518.566 27.5534 518.82 26.8828C519.074 26.2057 519.419 25.6328 519.855 25.1641C520.292 24.6953 520.786 24.3405 521.34 24.0996C521.893 23.8587 522.466 23.7383 523.059 23.7383C523.814 23.7383 524.465 23.8685 525.012 24.1289C525.565 24.3893 526.018 24.7539 526.369 25.2227C526.721 25.6849 526.981 26.2318 527.15 26.8633C527.32 27.4883 527.404 28.1719 527.404 28.9141V29.7246H519.514V28.25H525.598V28.1133C525.572 27.6445 525.474 27.1888 525.305 26.7461C525.142 26.3034 524.882 25.9388 524.523 25.6523C524.165 25.3659 523.677 25.2227 523.059 25.2227C522.648 25.2227 522.271 25.3105 521.926 25.4863C521.581 25.6556 521.285 25.9095 521.037 26.248C520.79 26.5866 520.598 27 520.461 27.4883C520.324 27.9766 520.256 28.5397 520.256 29.1777V29.5879C520.256 30.0892 520.324 30.5612 520.461 31.0039C520.604 31.4401 520.809 31.8242 521.076 32.1562C521.35 32.4883 521.678 32.7487 522.062 32.9375C522.453 33.1263 522.896 33.2207 523.391 33.2207C524.029 33.2207 524.569 33.0905 525.012 32.8301C525.454 32.5697 525.842 32.2214 526.174 31.7852L527.268 32.6543C527.04 32.9993 526.75 33.3281 526.398 33.6406C526.047 33.9531 525.614 34.207 525.1 34.4023C524.592 34.5977 523.99 34.6953 523.293 34.6953ZM519.904 21.1113C519.904 20.8184 519.995 20.571 520.178 20.3691C520.36 20.1673 520.624 20.0664 520.969 20.0664C521.32 20.0664 521.587 20.1673 521.77 20.3691C521.952 20.571 522.043 20.8184 522.043 21.1113C522.043 21.3913 521.952 21.6322 521.77 21.834C521.587 22.0293 521.32 22.127 520.969 22.127C520.624 22.127 520.36 22.0293 520.178 21.834C519.995 21.6322 519.904 21.3913 519.904 21.1113ZM524.113 21.1309C524.113 20.8379 524.201 20.5905 524.377 20.3887C524.559 20.1868 524.826 20.0859 525.178 20.0859C525.523 20.0859 525.786 20.1868 525.969 20.3887C526.158 20.5905 526.252 20.8379 526.252 21.1309C526.252 21.4108 526.158 21.6517 525.969 21.8535C525.786 22.0488 525.523 22.1465 525.178 22.1465C524.826 22.1465 524.559 22.0488 524.377 21.8535C524.201 21.6517 524.113 21.4108 524.113 21.1309ZM536.281 25.9648V38.5625H534.465V23.9336H536.125L536.281 25.9648ZM543.4 29.1289V29.334C543.4 30.1022 543.309 30.8151 543.127 31.4727C542.945 32.1237 542.678 32.6901 542.326 33.1719C541.981 33.6536 541.555 34.028 541.047 34.2949C540.539 34.5618 539.956 34.6953 539.299 34.6953C538.628 34.6953 538.036 34.5846 537.521 34.3633C537.007 34.1419 536.571 33.8197 536.213 33.3965C535.855 32.9733 535.568 32.4655 535.354 31.873C535.145 31.2806 535.002 30.6133 534.924 29.8711V28.7773C535.002 27.9961 535.148 27.2962 535.363 26.6777C535.578 26.0592 535.861 25.5319 536.213 25.0957C536.571 24.653 537.004 24.3177 537.512 24.0898C538.02 23.8555 538.605 23.7383 539.27 23.7383C539.934 23.7383 540.523 23.8685 541.037 24.1289C541.551 24.3828 541.984 24.7474 542.336 25.2227C542.688 25.6979 542.951 26.2676 543.127 26.9316C543.309 27.5892 543.4 28.3216 543.4 29.1289ZM541.584 29.334V29.1289C541.584 28.6016 541.529 28.1068 541.418 27.6445C541.307 27.1758 541.135 26.7656 540.9 26.4141C540.673 26.056 540.38 25.776 540.021 25.5742C539.663 25.3659 539.237 25.2617 538.742 25.2617C538.286 25.2617 537.889 25.3398 537.551 25.4961C537.219 25.6523 536.936 25.8639 536.701 26.1309C536.467 26.3913 536.275 26.6908 536.125 27.0293C535.982 27.3613 535.874 27.7064 535.803 28.0645V30.5938C535.933 31.0495 536.115 31.4792 536.35 31.8828C536.584 32.2799 536.896 32.6022 537.287 32.8496C537.678 33.0905 538.169 33.2109 538.762 33.2109C539.25 33.2109 539.67 33.11 540.021 32.9082C540.38 32.6999 540.673 32.4167 540.9 32.0586C541.135 31.7005 541.307 31.2904 541.418 30.8281C541.529 30.3594 541.584 29.8613 541.584 29.334ZM551.936 32.6934V27.2539C551.936 26.8372 551.851 26.4759 551.682 26.1699C551.519 25.8574 551.271 25.6165 550.939 25.4473C550.607 25.278 550.197 25.1934 549.709 25.1934C549.253 25.1934 548.853 25.2715 548.508 25.4277C548.169 25.584 547.902 25.7891 547.707 26.043C547.518 26.2969 547.424 26.5703 547.424 26.8633H545.617C545.617 26.4857 545.715 26.1113 545.91 25.7402C546.105 25.3691 546.385 25.0339 546.75 24.7344C547.121 24.4284 547.564 24.1875 548.078 24.0117C548.599 23.8294 549.178 23.7383 549.816 23.7383C550.585 23.7383 551.262 23.8685 551.848 24.1289C552.44 24.3893 552.902 24.7832 553.234 25.3105C553.573 25.8314 553.742 26.4857 553.742 27.2734V32.1953C553.742 32.5469 553.771 32.9212 553.83 33.3184C553.895 33.7155 553.99 34.0573 554.113 34.3438V34.5H552.229C552.137 34.2917 552.066 34.015 552.014 33.6699C551.962 33.3184 551.936 32.9928 551.936 32.6934ZM552.248 28.0938L552.268 29.3633H550.441C549.927 29.3633 549.468 29.4056 549.064 29.4902C548.661 29.5684 548.322 29.6888 548.049 29.8516C547.775 30.0143 547.567 30.2194 547.424 30.4668C547.281 30.7077 547.209 30.9909 547.209 31.3164C547.209 31.6484 547.284 31.9512 547.434 32.2246C547.583 32.498 547.808 32.7161 548.107 32.8789C548.413 33.0352 548.788 33.1133 549.23 33.1133C549.784 33.1133 550.272 32.9961 550.695 32.7617C551.118 32.5273 551.454 32.2409 551.701 31.9023C551.955 31.5638 552.092 31.235 552.111 30.916L552.883 31.7852C552.837 32.0586 552.714 32.3613 552.512 32.6934C552.31 33.0254 552.04 33.3444 551.701 33.6504C551.369 33.9499 550.972 34.2005 550.51 34.4023C550.054 34.5977 549.54 34.6953 548.967 34.6953C548.251 34.6953 547.622 34.5553 547.082 34.2754C546.548 33.9954 546.132 33.6211 545.832 33.1523C545.539 32.6771 545.393 32.1465 545.393 31.5605C545.393 30.9941 545.503 30.4961 545.725 30.0664C545.946 29.6302 546.265 29.2689 546.682 28.9824C547.098 28.6895 547.6 28.4681 548.186 28.3184C548.771 28.1686 549.426 28.0938 550.148 28.0938H552.248ZM560.529 29.4512H558.586V28.3379H560.383C560.884 28.3379 561.281 28.276 561.574 28.1523C561.867 28.0221 562.076 27.8431 562.199 27.6152C562.323 27.3874 562.385 27.1204 562.385 26.8145C562.385 26.541 562.313 26.2839 562.17 26.043C562.033 25.7956 561.812 25.597 561.506 25.4473C561.2 25.291 560.79 25.2129 560.275 25.2129C559.859 25.2129 559.481 25.2878 559.143 25.4375C558.804 25.5807 558.534 25.7793 558.332 26.0332C558.137 26.2806 558.039 26.5605 558.039 26.873H556.232C556.232 26.2285 556.415 25.6751 556.779 25.2129C557.15 24.7441 557.642 24.3828 558.254 24.1289C558.872 23.875 559.546 23.748 560.275 23.748C560.887 23.748 561.434 23.8164 561.916 23.9531C562.404 24.0833 562.818 24.2786 563.156 24.5391C563.495 24.793 563.752 25.112 563.928 25.4961C564.11 25.8737 564.201 26.3132 564.201 26.8145C564.201 27.1725 564.117 27.5111 563.947 27.8301C563.778 28.1491 563.534 28.4323 563.215 28.6797C562.896 28.9206 562.508 29.1094 562.053 29.2461C561.604 29.3828 561.096 29.4512 560.529 29.4512ZM558.586 28.7676H560.529C561.161 28.7676 561.717 28.8294 562.199 28.9531C562.681 29.0703 563.085 29.2461 563.41 29.4805C563.736 29.7148 563.98 30.0046 564.143 30.3496C564.312 30.6882 564.396 31.0788 564.396 31.5215C564.396 32.0163 564.296 32.4622 564.094 32.8594C563.898 33.25 563.618 33.582 563.254 33.8555C562.889 34.1289 562.453 34.3372 561.945 34.4805C561.444 34.6237 560.887 34.6953 560.275 34.6953C559.592 34.6953 558.928 34.5781 558.283 34.3438C557.639 34.1094 557.108 33.748 556.691 33.2598C556.275 32.765 556.066 32.1367 556.066 31.375H557.873C557.873 31.694 557.974 31.9967 558.176 32.2832C558.378 32.5697 558.658 32.8008 559.016 32.9766C559.38 33.1523 559.8 33.2402 560.275 33.2402C560.783 33.2402 561.206 33.1621 561.545 33.0059C561.883 32.8496 562.137 32.6413 562.307 32.3809C562.482 32.1204 562.57 31.8372 562.57 31.5312C562.57 31.1341 562.492 30.8151 562.336 30.5742C562.18 30.3333 561.939 30.1576 561.613 30.0469C561.294 29.9297 560.884 29.8711 560.383 29.8711H558.586V28.7676Z" fill="#DC2626"/>
</svg>
